<?xml version="1.0" encoding="UTF-8"?>
<svg width="160px" height="32px" viewBox="0 0 160 32" version="1.1" xmlns="http://www.w3.org/2000/svg" xmlns:xlink="http://www.w3.org/1999/xlink">
    <title>bullet-tips</title>
    <g id="bullet-tips" stroke="none" stroke-width="1" fill="none" fill-rule="evenodd">
        <path d="M8.29601411,25.9374582 L8.41828571,25.9364706 C8.61028571,25.9364706 8.75961905,25.8511373 8.86628571,25.6804706 C9.10095238,25.2324706 9.36761905,24.7364706 9.66628571,24.1924706 C9.96495238,23.6484706 10.2742857,23.0884706 10.5942857,22.5124706 L10.5942857,22.5124706 L11.6182857,20.7844706 C11.7889524,20.4858039 11.9542857,20.2031373 12.1142857,19.9364706 C12.2742857,19.6698039 12.439619,19.4084706 12.6102857,19.1524706 C14.807619,18.7684706 16.7382857,18.5231373 18.4022857,18.4164706 C18.167619,18.9711373 17.943619,19.5578039 17.7302857,20.1764706 C17.5169524,20.7951373 17.335619,21.3978039 17.1862857,21.9844706 C17.0369524,22.5711373 16.9249524,23.1151373 16.8502857,23.6164706 C16.775619,24.1178039 16.759619,24.5178039 16.8022857,24.8164706 C16.8449524,25.1151373 16.903619,25.3604706 16.9782857,25.5524706 C17.0529524,25.7444706 17.175619,25.7978039 17.3462857,25.7124706 C17.5809524,25.6058039 17.7729524,25.5098039 17.9222857,25.4244706 C18.071619,25.3391373 18.231619,25.2431373 18.4022857,25.1364706 C18.6369524,24.9871373 18.759619,24.8644706 18.7702857,24.7684706 C18.7809524,24.6724706 18.711619,24.4751373 18.5622857,24.1764706 C18.4769524,24.0271373 18.4182857,23.8671373 18.3862857,23.6964706 C18.3542857,23.5258039 18.327619,23.3978039 18.3062857,23.3124706 C18.3062857,23.1204706 18.3649524,22.8218039 18.4822857,22.4164706 C18.599619,22.0111373 18.7489524,21.5684706 18.9302857,21.0884706 C19.111619,20.6084706 19.303619,20.1178039 19.5062857,19.6164706 C19.7089524,19.1151373 19.895619,18.6724706 20.0662857,18.2884706 C20.727619,18.2884706 21.351619,18.3044706 21.9382857,18.3364706 C22.5249524,18.3684706 23.0102857,18.4058039 23.3942857,18.4484706 L23.3942857,18.4484706 L24.1622857,17.3604706 C23.543619,17.2111373 22.9249524,17.1258039 22.3062857,17.1044706 C21.687619,17.0831373 21.0902857,17.0618039 20.5142857,17.0404706 C21.6022857,15.0351373 22.519619,13.3658039 23.2662857,12.0324706 C24.0129524,10.6991373 24.631619,9.58447059 25.1222857,8.68847059 C25.271619,8.38980392 25.367619,8.11247059 25.4102857,7.85647059 C25.4529524,7.60047059 25.4422857,7.25913725 25.3782857,6.83247059 C25.335619,6.44847059 25.287619,6.25647059 25.2342857,6.25647059 C25.1809524,6.25647059 25.0689524,6.35247059 24.8982857,6.54447059 C24.8342857,6.65113725 24.6422857,6.98180392 24.3222857,7.53647059 C24.0022857,8.09113725 23.575619,8.83247059 23.0422857,9.76047059 C22.5089524,10.6884706 21.895619,11.7711373 21.2022857,13.0084706 C20.5089524,14.2458039 19.7569524,15.6004706 18.9462857,17.0724706 C18.391619,17.1364706 17.8902857,17.1844706 17.4422857,17.2164706 C16.9942857,17.2484706 16.567619,17.2804706 16.1622857,17.3124706 C15.7569524,17.3444706 15.3622857,17.3871373 14.9782857,17.4404706 C14.5942857,17.4938039 14.1782857,17.5631373 13.7302857,17.6484706 C14.9249524,16.1338039 15.9169524,14.8218039 16.7062857,13.7124706 C17.495619,12.6031373 18.1142857,11.6431373 18.5622857,10.8324706 C19.0102857,10.0218039 19.3142857,9.33913725 19.4742857,8.78447059 C19.6342857,8.22980392 19.6822857,7.73913725 19.6182857,7.31247059 C19.5329524,6.73647059 19.4209524,6.27247059 19.2822857,5.92047059 C19.143619,5.56847059 18.9622857,5.29113725 18.7382857,5.08847059 C18.5142857,4.88580392 18.2209524,4.74713725 17.8582857,4.67247059 C17.495619,4.59780392 17.047619,4.56047059 16.5142857,4.56047059 C15.895619,4.56047059 15.2342857,4.60847059 14.5302857,4.70447059 C13.8262857,4.80047059 13.0689524,4.93380392 12.2582857,5.10447059 C11.5542857,5.27513725 10.839619,5.47780392 10.1142857,5.71247059 C9.38895238,5.94713725 8.68495238,6.19780392 8.00228571,6.46447059 C7.31961905,6.73113725 6.66895238,7.00847059 6.05028571,7.29647059 C5.43161905,7.58447059 4.87695238,7.86713725 4.38628571,8.14447059 C3.42628571,8.67780392 2.82895238,9.09380392 2.59428571,9.39247059 C2.38095238,9.73380392 2.22095238,10.2244706 2.11428571,10.8644706 C2.00761905,11.5044706 1.97561905,12.0591373 2.01828571,12.5284706 C2.14628571,13.3604706 2.50895238,13.7764706 3.10628571,13.7764706 C3.29828571,13.7338039 3.62895238,13.6058039 4.09828571,13.3924706 L4.09828571,13.3924706 L7.20228571,11.6004706 C7.56495238,11.3871373 7.71961905,11.2058039 7.66628571,11.0564706 C7.61295238,10.9071373 7.34095238,10.9284706 6.85028571,11.1204706 C5.80495238,11.5258039 5.00495238,11.7764706 4.45028571,11.8724706 C3.89561905,11.9684706 3.51695238,11.9524706 3.31428571,11.8244706 C3.11161905,11.6964706 3.05295238,11.4831373 3.13828571,11.1844706 C3.22361905,10.8858039 3.38361905,10.5444706 3.61828571,10.1604706 C3.89561905,9.86180392 4.27428571,9.53647059 4.75428571,9.18447059 C5.23428571,8.83247059 5.96495238,8.47513725 6.94628571,8.11247059 C8.03428571,7.68580392 9.02095238,7.32313725 9.90628571,7.02447059 C10.791619,6.72580392 11.6182857,6.48047059 12.3862857,6.28847059 C13.1542857,6.09647059 13.8742857,5.95247059 14.5462857,5.85647059 C15.2182857,5.76047059 15.8742857,5.71247059 16.5142857,5.71247059 C17.3249524,5.71247059 17.847619,5.94713725 18.0822857,6.41647059 C18.3169524,6.88580392 18.359619,7.49380392 18.2102857,8.24047059 C18.1462857,8.45380392 18.0289524,8.81647059 17.8582857,9.32847059 C17.687619,9.84047059 17.367619,10.4484706 16.8982857,11.1524706 C16.6849524,11.5151373 16.391619,11.9684706 16.0182857,12.5124706 C15.6449524,13.0564706 15.2342857,13.6431373 14.7862857,14.2724706 C14.3382857,14.9018039 13.863619,15.5471373 13.3622857,16.2084706 C12.8609524,16.8698039 12.3649524,17.4991373 11.8742857,18.0964706 L11.8742857,18.0964706 L7.36228571,19.0564706 C7.04228571,18.9071373 6.80761905,18.8431373 6.65828571,18.8644706 C6.35961905,18.9284706 6.18361905,19.0618039 6.13028571,19.2644706 C6.07695238,19.4671373 6.03961905,19.6964706 6.01828571,19.9524706 C6.01828571,20.1871373 6.19961905,20.3151373 6.56228571,20.3364706 C6.92495238,20.3578039 7.35161905,20.3258039 7.84228571,20.2404706 C8.33295238,20.1551373 8.84495238,20.0484706 9.37828571,19.9204706 C9.91161905,19.7924706 10.3489524,19.6964706 10.6902857,19.6324706 C10.583619,19.8244706 10.4129524,20.1178039 10.1782857,20.5124706 C9.94361905,20.9071373 9.68761905,21.3338039 9.41028571,21.7924706 C9.13295238,22.2511373 8.86095238,22.7204706 8.59428571,23.2004706 C8.32761905,23.6804706 8.09828571,24.1124706 7.90628571,24.4964706 C7.71428571,24.8591373 7.65561905,25.1951373 7.73028571,25.5044706 C7.80495238,25.8138039 8.03428571,25.9578039 8.41828571,25.9364706 L8.29601411,25.9374582 Z M31.8102857,13.3764706 C31.9809524,13.4084706 32.167619,13.3658039 32.3702857,13.2484706 C32.5729524,13.1311373 32.7702857,12.9231373 32.9622857,12.6244706 C33.175619,12.2618039 33.2929524,11.9204706 33.3142857,11.6004706 C33.335619,11.2804706 33.303619,11.0084706 33.2182857,10.7844706 C33.1329524,10.5604706 33.0262857,10.3898039 32.8982857,10.2724706 C32.7702857,10.1551373 32.663619,10.1071373 32.5782857,10.1284706 C32.151619,10.2778039 31.8209524,10.5978039 31.5862857,11.0884706 C31.351619,11.5791373 31.2342857,12.0484706 31.2342857,12.4964706 C31.2342857,12.7524706 31.287619,12.9551373 31.3942857,13.1044706 C31.5009524,13.2538039 31.639619,13.3444706 31.8102857,13.3764706 Z M29.0582857,25.4724706 C29.7622857,25.5898039 30.5729524,25.2644706 31.4902857,24.4964706 C32.215619,23.8991373 33.015619,22.9178039 33.8902857,21.5524706 L33.8902857,21.5524706 L33.7302857,20.4004706 C33.2182857,21.0618039 32.7542857,21.6111373 32.3382857,22.0484706 C31.9222857,22.4858039 31.5489524,22.8378039 31.2182857,23.1044706 C30.887619,23.3711373 30.5729524,23.5684706 30.2742857,23.6964706 C29.975619,23.8244706 29.687619,23.9204706 29.4102857,23.9844706 C29.1542857,24.0484706 28.9089524,24.0004706 28.6742857,23.8404706 C28.439619,23.6804706 28.2369524,23.4458039 28.0662857,23.1364706 C27.895619,22.8271373 27.767619,22.4698039 27.6822857,22.0644706 C27.5969524,21.6591373 27.5649524,21.2324706 27.5862857,20.7844706 C27.6289524,19.9951373 27.719619,19.3658039 27.8582857,18.8964706 C27.9969524,18.4271373 28.2902857,18.0004706 28.7382857,17.6164706 C29.2289524,17.1898039 29.655619,16.7738039 30.0182857,16.3684706 C30.3809524,15.9631373 30.7222857,15.5578039 31.0422857,15.1524706 C31.319619,14.7471373 31.1169524,14.5444706 30.4342857,14.5444706 C29.175619,14.5658039 27.9809524,15.7178039 26.8502857,18.0004706 C26.3169524,19.1524706 26.1142857,20.2351373 26.2422857,21.2484706 C26.3702857,22.2618039 26.711619,23.2271373 27.2662857,24.1444706 C27.7569524,24.9124706 28.3542857,25.3551373 29.0582857,25.4724706 Z M35.5862857,18.0324706 C35.9702857,15.8564706 36.887619,14.7898039 38.3382857,14.8324706 C38.743619,14.8324706 39.159619,14.8804706 39.5862857,14.9764706 C40.0129524,15.0724706 40.4982857,15.2218039 41.0422857,15.4244706 C41.5862857,15.6271373 42.215619,15.8884706 42.9302857,16.2084706 C43.6449524,16.5284706 44.4929524,16.9124706 45.4742857,17.3604706 C46.5622857,17.8511373 47.5062857,18.0324706 48.3062857,17.9044706 C49.1062857,17.7764706 49.8262857,17.3711373 50.4662857,16.6884706 C51.2342857,15.7924706 51.6502857,14.5551373 51.7142857,12.9764706 L51.7142857,12.9764706 L50.8182857,12.9764706 C50.711619,13.9151373 50.4129524,14.6298039 49.9222857,15.1204706 C49.3249524,15.7391373 48.7489524,16.1178039 48.1942857,16.2564706 C47.639619,16.3951373 47.0209524,16.3044706 46.3382857,15.9844706 C45.207619,15.4724706 44.2422857,15.0458039 43.4422857,14.7044706 C42.6422857,14.3631373 41.9542857,14.0964706 41.3782857,13.9044706 C40.8022857,13.7124706 40.3062857,13.5738039 39.8902857,13.4884706 C39.4742857,13.4031373 39.0849524,13.3604706 38.7222857,13.3604706 C37.6129524,13.3604706 36.6849524,13.7178039 35.9382857,14.4324706 C35.191619,15.1471373 34.775619,16.3471373 34.6902857,18.0324706 L34.6902857,18.0324706 L35.5862857,18.0324706 Z M88.1947302,31.3996706 L88.2262857,31.3924706 C88.2902857,31.3604706 88.3542857,31.2484706 88.4182857,31.0564706 C88.4822857,30.8644706 88.535619,30.6511373 88.5782857,30.4164706 C88.599619,30.2031373 88.631619,29.7978039 88.6742857,29.2004706 C88.7169524,28.6031373 88.7542857,27.9258039 88.7862857,27.1684706 C88.8182857,26.4111373 88.855619,25.6324706 88.8982857,24.8324706 C88.9409524,24.0324706 88.9729524,23.3124706 88.9942857,22.6724706 C89.015619,22.5018039 89.0262857,22.3311373 89.0262857,22.1604706 C89.0262857,21.9898039 89.0369524,21.8191373 89.0582857,21.6484706 C89.1009524,21.6484706 89.1329524,21.6431373 89.1542857,21.6324706 C89.175619,21.6218039 89.207619,21.6164706 89.2502857,21.6164706 C89.5702857,21.5738039 89.9969524,21.5524706 90.5302857,21.5524706 C91.063619,21.5524706 91.6129524,21.5684706 92.1782857,21.6004706 C92.743619,21.6324706 93.2822857,21.6911373 93.7942857,21.7764706 C94.3062857,21.8618039 94.7009524,21.9684706 94.9782857,22.0964706 C95.255619,22.2244706 95.5009524,22.2938039 95.7142857,22.3044706 C95.927619,22.3151373 96.0929524,22.2884706 96.2102857,22.2244706 C96.327619,22.1604706 96.3969524,22.0804706 96.4182857,21.9844706 C96.439619,21.8884706 96.407619,21.7871373 96.3222857,21.6804706 C96.151619,21.4884706 95.9329524,21.3018039 95.6662857,21.1204706 C95.399619,20.9391373 95.0849524,20.7951373 94.7222857,20.6884706 C94.5302857,20.6244706 94.295619,20.5231373 94.0182857,20.3844706 C93.7409524,20.2458039 93.4422857,20.0858039 93.1222857,19.9044706 C92.8022857,19.7231373 92.471619,19.5204706 92.1302857,19.2964706 C91.7889524,19.0724706 91.4689524,18.8431373 91.1702857,18.6084706 C90.7862857,18.2884706 90.5782857,18.1604706 90.5462857,18.2244706 C90.5142857,18.2884706 90.6582857,18.4484706 90.9782857,18.7044706 C91.1489524,18.8538039 91.303619,18.9924706 91.4422857,19.1204706 C91.5809524,19.2484706 91.7249524,19.3871373 91.8742857,19.5364706 C92.023619,19.6858039 92.1889524,19.8511373 92.3702857,20.0324706 C92.551619,20.2138039 92.7702857,20.4218039 93.0262857,20.6564706 C92.3009524,20.5711373 91.6022857,20.5391373 90.9302857,20.5604706 C90.2582857,20.5818039 89.6449524,20.6138039 89.0902857,20.6564706 C89.111619,20.2938039 89.127619,19.9258039 89.1382857,19.5524706 C89.1489524,19.1791373 89.1542857,18.8111373 89.1542857,18.4484706 C89.3889524,18.3204706 89.591619,18.2031373 89.7622857,18.0964706 L89.7622857,18.0964706 L90.2742857,17.7764706 C90.6369524,17.4778039 90.8502857,17.2431373 90.9142857,17.0724706 C91.1489524,17.0084706 91.3782857,16.9018039 91.6022857,16.7524706 C91.8262857,16.6031373 92.023619,16.3791373 92.1942857,16.0804706 C92.6849524,15.3124706 93.159619,14.5924706 93.6182857,13.9204706 C94.0769524,13.2484706 94.4129524,12.7738039 94.6262857,12.4964706 C94.9249524,12.1124706 95.0529524,11.7284706 95.0102857,11.3444706 C94.967619,10.9604706 94.8502857,10.5764706 94.6582857,10.1924706 C94.2529524,9.38180392 93.8369524,8.86447059 93.4102857,8.64047059 C92.983619,8.41647059 92.503619,8.30447059 91.9702857,8.30447059 C90.9889524,8.30447059 89.9862857,8.44313725 88.9622857,8.72047059 C89.7302857,8.01647059 90.4182857,7.32847059 91.0262857,6.65647059 C91.6342857,5.98447059 92.023619,5.48847059 92.1942857,5.16847059 C92.4289524,4.76313725 92.5622857,4.32047059 92.5942857,3.84047059 C92.6262857,3.36047059 92.5569524,2.98180392 92.3862857,2.70447059 C91.7462857,1.63780392 91.079619,1.07247059 90.3862857,1.00847059 C89.6929524,0.944470588 89.015619,1.24313725 88.3542857,1.90447059 C87.863619,2.41647059 87.4262857,2.96047059 87.0422857,3.53647059 C86.6582857,4.11247059 86.2742857,4.88047059 85.8902857,5.84047059 C85.8262857,6.01113725 85.6769524,6.12847059 85.4422857,6.19247059 C85.207619,6.25647059 84.823619,6.08580392 84.2902857,5.68047059 C83.607619,5.16847059 83.223619,4.98180392 83.1382857,5.12047059 C83.0529524,5.25913725 83.223619,5.59513725 83.6502857,6.12847059 C83.5009524,6.38447059 83.2662857,6.78447059 82.9462857,7.32847059 C82.6262857,7.87247059 82.263619,8.49113725 81.8582857,9.18447059 C81.4529524,9.87780392 81.031619,10.6138039 80.5942857,11.3924706 C80.1569524,12.1711373 79.7302857,12.9284706 79.3142857,13.6644706 C78.8982857,14.4004706 78.5249524,15.0778039 78.1942857,15.6964706 C77.863619,16.3151373 77.6129524,16.8058039 77.4422857,17.1684706 C77.4209524,17.2324706 77.3889524,17.3071373 77.3462857,17.3924706 C77.1542857,17.3924706 76.951619,17.4138039 76.7382857,17.4564706 C76.5249524,17.4991373 76.2902857,17.5524706 76.0342857,17.6164706 C76.6102857,16.5284706 77.143619,15.5844706 77.6342857,14.7844706 C78.1249524,13.9844706 78.5729524,13.2538039 78.9782857,12.5924706 C79.1489524,12.3151373 79.2289524,12.0378039 79.2182857,11.7604706 C79.207619,11.4831373 79.1169524,11.2591373 78.9462857,11.0884706 C78.775619,10.9178039 78.535619,10.8164706 78.2262857,10.7844706 C77.9169524,10.7524706 77.5382857,10.8538039 77.0902857,11.0884706 C77.7729524,10.0644706 78.4182857,9.14180392 79.0262857,8.32047059 C79.6342857,7.49913725 80.1622857,6.86447059 80.6102857,6.41647059 C80.8662857,6.13913725 81.0742857,5.90980392 81.2342857,5.72847059 C81.3942857,5.54713725 81.5009524,5.39247059 81.5542857,5.26447059 C81.607619,5.13647059 81.6129524,5.00847059 81.5702857,4.88047059 C81.527619,4.75247059 81.4422857,4.60313725 81.3142857,4.43247059 C81.015619,4.06980392 80.6849524,3.89380392 80.3222857,3.90447059 C79.959619,3.91513725 79.5222857,4.09113725 79.0102857,4.43247059 C78.7969524,4.56047059 78.5409524,4.68847059 78.2422857,4.81647059 C77.943619,4.94447059 77.6342857,5.05647059 77.3142857,5.15247059 C76.9942857,5.24847059 76.679619,5.32847059 76.3702857,5.39247059 C76.0609524,5.45647059 75.799619,5.48847059 75.5862857,5.48847059 C74.839619,5.46713725 74.4449524,5.53647059 74.4022857,5.69647059 C74.359619,5.85647059 74.551619,6.02180392 74.9782857,6.19247059 C75.191619,6.27780392 75.4209524,6.33647059 75.6662857,6.36847059 C75.911619,6.40047059 76.2209524,6.37913725 76.5942857,6.30447059 C76.967619,6.22980392 77.431619,6.09647059 77.9862857,5.90447059 C78.5409524,5.71247059 79.2342857,5.43513725 80.0662857,5.07247059 C79.5969524,5.84047059 79.1062857,6.58180392 78.5942857,7.29647059 C78.0822857,8.01113725 77.5862857,8.67247059 77.1062857,9.28047059 C76.6262857,9.88847059 76.1729524,10.4324706 75.7462857,10.9124706 C75.319619,11.3924706 74.9462857,11.7818039 74.6262857,12.0804706 C74.3062857,12.3791373 74.023619,12.6191373 73.7782857,12.8004706 C73.5329524,12.9818039 73.3142857,13.1258039 73.1222857,13.2324706 C72.9302857,13.3391373 72.7649524,13.4191373 72.6262857,13.4724706 C72.487619,13.5258039 72.3542857,13.5844706 72.2262857,13.6484706 C71.9489524,13.7551373 71.7942857,13.9311373 71.7622857,14.1764706 C71.7302857,14.4218039 71.7462857,14.6618039 71.8102857,14.8964706 C71.895619,15.1311373 72.0929524,15.1631373 72.4022857,14.9924706 C72.711619,14.8218039 73.239619,14.4698039 73.9862857,13.9364706 C74.9249524,13.2751373 75.6662857,12.7738039 76.2102857,12.4324706 C76.7542857,12.0911373 77.1542857,11.8671373 77.4102857,11.7604706 C77.6662857,11.6538039 77.815619,11.6484706 77.8582857,11.7444706 C77.9009524,11.8404706 77.9009524,11.9951373 77.8582857,12.2084706 C77.559619,12.8698039 77.1809524,13.6218039 76.7222857,14.4644706 C76.263619,15.3071373 75.7249524,16.1551373 75.1062857,17.0084706 C74.679619,17.6058039 74.247619,18.0698039 73.8102857,18.4004706 C73.3729524,18.7311373 72.8022857,19.0778039 72.0982857,19.4404706 C71.6289524,19.6751373 71.3302857,19.8724706 71.2022857,20.0324706 C71.0742857,20.1924706 70.999619,20.4751373 70.9782857,20.8804706 C70.9782857,21.0084706 71.0049524,21.0991373 71.0582857,21.1524706 C71.111619,21.2058039 71.2342857,21.2004706 71.4262857,21.1364706 C71.6182857,21.0724706 71.9009524,20.9338039 72.2742857,20.7204706 C72.647619,20.5071373 73.1542857,20.1871373 73.7942857,19.7604706 C75.159619,18.8644706 76.2049524,18.3738039 76.9302857,18.2884706 C76.183619,19.9524706 75.655619,21.3871373 75.3462857,22.5924706 C75.0369524,23.7978039 74.903619,24.7951373 74.9462857,25.5844706 C75.0102857,27.3551373 75.3409524,28.2831373 75.9382857,28.3684706 C76.535619,28.4751373 77.143619,27.6858039 77.7622857,26.0004706 C78.487619,23.9951373 78.9569524,21.7978039 79.1702857,19.4084706 C79.2129524,18.8538039 79.1489524,18.4004706 78.9782857,18.0484706 C78.807619,17.6964706 78.4769524,17.4884706 77.9862857,17.4244706 C78.3702857,16.5711373 78.855619,15.5951373 79.4422857,14.4964706 C80.0289524,13.3978039 80.6209524,12.3258039 81.2182857,11.2804706 C81.815619,10.2351373 82.3702857,9.28580392 82.8822857,8.43247059 C83.3942857,7.57913725 83.767619,6.96047059 84.0022857,6.57647059 C84.3009524,6.93913725 84.5889524,7.22713725 84.8662857,7.44047059 C85.143619,7.65380392 85.4849524,7.84580392 85.8902857,8.01647059 C86.0609524,8.10180392 86.2102857,8.06980392 86.3382857,7.92047059 C86.4662857,7.77113725 86.5409524,7.51513725 86.5622857,7.15247059 C86.5622857,6.96047059 86.6262857,6.64580392 86.7542857,6.20847059 C86.8822857,5.77113725 87.047619,5.30713725 87.2502857,4.81647059 C87.4529524,4.32580392 87.671619,3.85113725 87.9062857,3.39247059 C88.1409524,2.93380392 88.3542857,2.60847059 88.5462857,2.41647059 C89.2289524,1.73380392 89.8529524,1.41380392 90.4182857,1.45647059 C90.983619,1.49913725 91.319619,1.85113725 91.4262857,2.51247059 C91.4902857,2.91780392 91.4742857,3.33913725 91.3782857,3.77647059 C91.2822857,4.21380392 91.079619,4.69913725 90.7702857,5.23247059 C90.4609524,5.76580392 90.0449524,6.35247059 89.5222857,6.99247059 C88.999619,7.63247059 88.343619,8.35780392 87.5542857,9.16847059 C87.2982857,9.27513725 87.0369524,9.37647059 86.7702857,9.47247059 C86.503619,9.56847059 86.2209524,9.68047059 85.9222857,9.80847059 C85.367619,10.0644706 84.8609524,10.4111373 84.4022857,10.8484706 C83.943619,11.2858039 83.5862857,11.9524706 83.3302857,12.8484706 C83.2449524,12.5498039 83.1329524,12.2511373 82.9942857,11.9524706 C82.855619,11.6538039 82.6902857,11.4084706 82.4982857,11.2164706 C82.263619,10.9818039 82.055619,10.8858039 81.8742857,10.9284706 C81.6929524,10.9711373 81.687619,11.1418039 81.8582857,11.4404706 C82.0289524,11.8031373 82.1889524,12.2084706 82.3382857,12.6564706 C82.487619,13.1044706 82.583619,13.5524706 82.6262857,14.0004706 C82.6262857,14.1711373 82.663619,14.4271373 82.7382857,14.7684706 C82.8129524,15.1098039 82.8982857,15.4671373 82.9942857,15.8404706 C83.0902857,16.2138039 83.191619,16.5711373 83.2982857,16.9124706 C83.4049524,17.2538039 83.4902857,17.4991373 83.5542857,17.6484706 C83.4902857,17.7551373 83.5009524,17.8564706 83.5862857,17.9524706 C83.671619,18.0484706 83.9062857,18.1391373 84.2902857,18.2244706 C84.439619,18.2458039 84.6262857,18.2511373 84.8502857,18.2404706 C85.0742857,18.2298039 85.303619,18.2031373 85.5382857,18.1604706 C85.7729524,18.1178039 85.9969524,18.0698039 86.2102857,18.0164706 C86.423619,17.9631373 86.6049524,17.9044706 86.7542857,17.8404706 C87.2022857,17.6271373 87.6822857,17.4778039 88.1942857,17.3924706 C88.1729524,17.5631373 88.1622857,17.7178039 88.1622857,17.8564706 L88.1622857,17.8564706 L88.1622857,18.3204706 C88.0769524,18.3844706 87.9862857,18.4484706 87.8902857,18.5124706 C87.7942857,18.5764706 87.6929524,18.6511373 87.5862857,18.7364706 C87.287619,18.9498039 86.9409524,19.1844706 86.5462857,19.4404706 C86.151619,19.6964706 85.7569524,19.9364706 85.3622857,20.1604706 C84.967619,20.3844706 84.6102857,20.5871373 84.2902857,20.7684706 C83.9702857,20.9498039 83.735619,21.0724706 83.5862857,21.1364706 C83.4582857,21.2004706 83.3409524,21.2698039 83.2342857,21.3444706 C83.127619,21.4191373 83.0689524,21.4724706 83.0582857,21.5044706 C83.047619,21.5364706 83.095619,21.5364706 83.2022857,21.5044706 C83.3089524,21.4724706 83.5009524,21.3924706 83.7782857,21.2644706 C84.6742857,20.8591373 85.479619,20.4698039 86.1942857,20.0964706 C86.9089524,19.7231373 87.5542857,19.3764706 88.1302857,19.0564706 C88.1302857,19.3551373 88.1249524,19.6484706 88.1142857,19.9364706 L88.1022857,20.3724706 L88.1022857,20.3724706 L88.0982857,20.8164706 C87.735619,20.8804706 87.3142857,20.9711373 86.8342857,21.0884706 C86.3542857,21.2058039 85.8849524,21.3338039 85.4262857,21.4724706 C84.967619,21.6111373 84.551619,21.7391373 84.1782857,21.8564706 C83.8049524,21.9738039 83.543619,22.0644706 83.3942857,22.1284706 C83.031619,22.2991373 82.663619,22.4111373 82.2902857,22.4644706 C81.9169524,22.5178039 81.6022857,22.5231373 81.3462857,22.4804706 C81.0689524,22.4378039 80.8769524,22.4964706 80.7702857,22.6564706 C80.663619,22.8164706 80.7062857,22.9818039 80.8982857,23.1524706 C81.239619,23.4298039 81.6609524,23.5578039 82.1622857,23.5364706 C82.663619,23.5151373 83.2129524,23.3658039 83.8102857,23.0884706 C84.023619,23.0031373 84.3009524,22.9071373 84.6422857,22.8004706 C84.983619,22.6938039 85.3462857,22.5818039 85.7302857,22.4644706 C86.1142857,22.3471373 86.5089524,22.2351373 86.9142857,22.1284706 C87.319619,22.0218039 87.703619,21.9258039 88.0662857,21.8404706 C88.023619,23.4618039 87.991619,25.0031373 87.9702857,26.4644706 C87.9489524,27.9258039 87.9489524,29.1471373 87.9702857,30.1284706 C87.9702857,30.6404706 87.9969524,30.9871373 88.0502857,31.1684706 C88.103619,31.3498039 88.1622857,31.4244706 88.2262857,31.3924706 L88.1947302,31.3996706 Z M90.4342857,16.4324706 C90.0929524,16.2831373 89.6982857,16.2298039 89.2502857,16.2724706 L89.2502857,16.2724706 L89.2502857,15.6324706 C89.2502857,15.4191373 89.2609524,15.1951373 89.2822857,14.9604706 C89.5169524,14.7258039 89.7142857,14.5178039 89.8742857,14.3364706 C90.0342857,14.1551373 90.167619,14.0111373 90.2742857,13.9044706 C90.551619,13.6058039 90.7969524,13.3711373 91.0102857,13.2004706 C91.223619,13.0298039 91.3942857,12.9018039 91.5222857,12.8164706 C91.6929524,12.7311373 91.7889524,12.6244706 91.8102857,12.4964706 C91.831619,12.3684706 91.8102857,12.2511373 91.7462857,12.1444706 C91.6822857,12.0378039 91.575619,11.9418039 91.4262857,11.8564706 C91.2769524,11.7711373 91.1169524,11.7284706 90.9462857,11.7284706 C90.647619,11.7284706 90.103619,11.8138039 89.3142857,11.9844706 C89.3142857,11.7071373 89.319619,11.4351373 89.3302857,11.1684706 L89.3422857,10.7644706 L89.3422857,10.7644706 L89.3462857,10.3524706 C89.3462857,10.1818039 89.3409524,10.0378039 89.3302857,9.92047059 C89.319619,9.80313725 89.3142857,9.70180392 89.3142857,9.61647059 C89.8262857,9.44580392 90.3329524,9.32847059 90.8342857,9.26447059 C91.335619,9.20047059 91.7889524,9.18980392 92.1942857,9.23247059 C92.3862857,9.25380392 92.5889524,9.33913725 92.8022857,9.48847059 C93.015619,9.63780392 93.2022857,9.82447059 93.3622857,10.0484706 C93.5222857,10.2724706 93.6342857,10.5231373 93.6982857,10.8004706 C93.7622857,11.0778039 93.7409524,11.3551373 93.6342857,11.6324706 C93.399619,12.1871373 93.0849524,12.8271373 92.6902857,13.5524706 C92.295619,14.2778039 91.863619,14.9178039 91.3942857,15.4724706 C91.2022857,15.7071373 91.0369524,15.8991373 90.8982857,16.0484706 C90.759619,16.1978039 90.6049524,16.3258039 90.4342857,16.4324706 Z M84.1942857,17.2644706 C84.151619,16.8591373 84.071619,16.3631373 83.9542857,15.7764706 C83.8369524,15.1898039 83.6822857,14.4378039 83.4902857,13.5204706 C83.5969524,13.1791373 83.6822857,12.9124706 83.7462857,12.7204706 C83.8102857,12.5284706 83.895619,12.3151373 84.0022857,12.0804706 C84.215619,11.6538039 84.4982857,11.3124706 84.8502857,11.0564706 C85.2022857,10.8004706 85.559619,10.6511373 85.9222857,10.6084706 C86.263619,10.5658039 86.6529524,10.4911373 87.0902857,10.3844706 C87.527619,10.2778039 87.991619,10.1178039 88.4822857,9.90447059 C88.4609524,10.0751373 88.4502857,10.2778039 88.4502857,10.5124706 C88.4502857,10.7471373 88.4289524,11.0564706 88.3862857,11.4404706 L88.3862857,11.4404706 L88.3862857,11.8404706 C88.3862857,11.9791373 88.375619,12.1231373 88.3542857,12.2724706 C88.0769524,12.3578039 87.7942857,12.4484706 87.5062857,12.5444706 C87.2182857,12.6404706 86.9249524,12.7524706 86.6262857,12.8804706 C86.2209524,13.0511373 85.815619,13.1844706 85.4102857,13.2804706 C85.0049524,13.3764706 84.695619,13.3711373 84.4822857,13.2644706 C84.2689524,13.1791373 84.0982857,13.1738039 83.9702857,13.2484706 C83.8422857,13.3231373 83.895619,13.4991373 84.1302857,13.7764706 C84.3009524,13.9684706 84.5569524,14.1178039 84.8982857,14.2244706 C85.239619,14.3311373 85.623619,14.2991373 86.0502857,14.1284706 C86.167619,14.0751373 86.307619,14.0151373 86.4702857,13.9484706 L86.8258413,13.8062484 L86.8258413,13.8062484 L87.0262857,13.7284706 C87.4422857,13.5684706 87.8742857,13.4138039 88.3222857,13.2644706 C88.3009524,13.5418039 88.2902857,13.8191373 88.2902857,14.0964706 C88.2902857,14.3738039 88.279619,14.6618039 88.2582857,14.9604706 C87.959619,15.2591373 87.6769524,15.5311373 87.4102857,15.7764706 C87.143619,16.0218039 86.9249524,16.2084706 86.7542857,16.3364706 C86.2209524,16.7631373 85.783619,17.0138039 85.4422857,17.0884706 C85.1009524,17.1631373 84.791619,17.2111373 84.5142857,17.2324706 C84.343619,17.2324706 84.2369524,17.2431373 84.1942857,17.2644706 Z M89.2822857,13.8724706 C89.2822857,13.7231373 89.287619,13.5791373 89.2982857,13.4404706 C89.3089524,13.3018039 89.3142857,13.1471373 89.3142857,12.9764706 C89.463619,12.9338039 89.607619,12.9071373 89.7462857,12.8964706 C89.8849524,12.8858039 90.0182857,12.8698039 90.1462857,12.8484706 C90.039619,12.9978039 89.911619,13.1631373 89.7622857,13.3444706 C89.6129524,13.5258039 89.4529524,13.7018039 89.2822857,13.8724706 Z M86.8502857,16.9124706 C87.127619,16.7418039 87.3782857,16.5711373 87.6022857,16.4004706 C87.8262857,16.2298039 88.0342857,16.0591373 88.2262857,15.8884706 L88.2262857,15.8884706 L88.2262857,16.5604706 C88.0129524,16.6244706 87.799619,16.6831373 87.5862857,16.7364706 C87.3729524,16.7898039 87.127619,16.8484706 86.8502857,16.9124706 Z M76.0662857,27.0884706 C75.8529524,27.0671373 75.7782857,26.3311373 75.8422857,24.8804706 C75.8849524,24.0911373 76.0129524,23.1844706 76.2262857,22.1604706 C76.439619,21.1364706 76.887619,19.8564706 77.5702857,18.3204706 C78.039619,18.4484706 78.2529524,18.8644706 78.2102857,19.5684706 C78.1462857,20.6778039 78.0182857,21.6804706 77.8262857,22.5764706 C77.6342857,23.4724706 77.3782857,24.3471373 77.0582857,25.2004706 C76.567619,26.4591373 76.2369524,27.0884706 76.0662857,27.0884706 Z M115.426286,30.2564706 C115.596952,30.2564706 115.703619,29.9684706 115.746286,29.3924706 C115.831619,28.4751373 115.890286,27.6644706 115.922286,26.9604706 C115.954286,26.2564706 115.991619,25.6058039 116.034286,25.0084706 C116.055619,25.0298039 116.071619,25.0404706 116.082286,25.0404706 C116.092952,25.0404706 116.108952,25.0511373 116.130286,25.0724706 C116.642286,25.4351373 117.058286,25.7498039 117.378286,26.0164706 C117.698286,26.2831373 117.986286,26.5551373 118.242286,26.8324706 C118.732952,27.3444706 119.180952,27.2484706 119.586286,26.5444706 C119.820952,26.1604706 120.023619,25.6858039 120.194286,25.1204706 C120.364952,24.5551373 120.492952,23.9951373 120.578286,23.4404706 C120.642286,22.9498039 120.706286,22.5124706 120.770286,22.1284706 C120.834286,21.7444706 120.898286,21.4671373 120.962286,21.2964706 C121.111619,20.9764706 121.116952,20.6884706 120.978286,20.4324706 C120.839619,20.1764706 120.588952,19.9524706 120.226286,19.7604706 C119.543619,19.3551373 118.972952,19.1258039 118.514286,19.0724706 C118.055619,19.0191373 117.740952,19.0458039 117.570286,19.1524706 C117.442286,19.2378039 117.234286,19.3391373 116.946286,19.4564706 C116.658286,19.5738039 116.407619,19.6644706 116.194286,19.7284706 L116.194286,19.7284706 L116.162286,19.7284706 C116.162286,19.6431373 116.172952,19.5791373 116.194286,19.5364706 C116.194286,18.7044706 116.130286,18.1018039 116.002286,17.7284706 C115.874286,17.3551373 115.586286,17.1151373 115.138286,17.0084706 C114.604952,16.9018039 114.274286,16.9124706 114.146286,17.0404706 C114.018286,17.1684706 114.103619,17.3498039 114.402286,17.5844706 C114.508952,17.6698039 114.658286,17.8778039 114.850286,18.2084706 C115.042286,18.5391373 115.127619,19.0351373 115.106286,19.6964706 C115.106286,19.7818039 115.100952,19.8564706 115.090286,19.9204706 C115.079619,19.9844706 115.074286,20.0591373 115.074286,20.1444706 C114.476952,20.3791373 113.964952,20.6031373 113.538286,20.8164706 C113.111619,21.0298039 112.716952,21.2538039 112.354286,21.4884706 C112.311619,21.5311373 112.279619,21.5578039 112.258286,21.5684706 C112.236952,21.5791373 112.204952,21.6058039 112.162286,21.6484706 C112.119619,21.2858039 112.007619,20.9818039 111.826286,20.7364706 C111.644952,20.4911373 111.351619,20.2511373 110.946286,20.0164706 L110.946286,20.0164706 L110.818286,19.9524706 C111.287619,19.4404706 111.708952,18.9498039 112.082286,18.4804706 C112.455619,18.0111373 112.812952,17.5418039 113.154286,17.0724706 C113.346286,17.0298039 113.543619,16.9871373 113.746286,16.9444706 C113.948952,16.9018039 114.156952,16.8591373 114.370286,16.8164706 C114.668952,16.7524706 114.988952,16.6884706 115.330286,16.6244706 C115.671619,16.5604706 116.012952,16.5071373 116.354286,16.4644706 C116.396952,16.4858039 116.439619,16.4964706 116.482286,16.4964706 L116.546286,16.5044706 L116.546286,16.5044706 L116.610286,16.5284706 C117.122286,16.5924706 117.708952,16.8271373 118.370286,17.2324706 C119.031619,17.6378039 119.639619,18.1178039 120.194286,18.6724706 C120.706286,19.2058039 121.186286,19.6751373 121.634286,20.0804706 C122.082286,20.4858039 122.514286,20.8538039 122.930286,21.1844706 C123.346286,21.5151373 123.762286,21.8138039 124.178286,22.0804706 C124.594286,22.3471373 125.036952,22.5978039 125.506286,22.8324706 C126.188952,23.1738039 126.892952,23.4404706 127.618286,23.6324706 C128.343619,23.8244706 128.962286,23.9098039 129.474286,23.8884706 C130.050286,23.8671373 130.370286,23.8244706 130.434286,23.7604706 C130.498286,23.6964706 130.412952,23.5898039 130.178286,23.4404706 C129.687619,23.1418039 129.132952,22.8644706 128.514286,22.6084706 C127.895619,22.3524706 127.159619,22.0858039 126.306286,21.8084706 C125.943619,21.7018039 125.559619,21.5418039 125.154286,21.3284706 C124.748952,21.1151373 124.279619,20.8271373 123.746286,20.4644706 C123.212952,20.1018039 122.610286,19.6324706 121.938286,19.0564706 C121.266286,18.4804706 120.471619,17.7658039 119.554286,16.9124706 C119.255619,16.6351373 118.935619,16.4111373 118.594286,16.2404706 C119.447619,16.1764706 120.236952,16.1391373 120.962286,16.1284706 C121.687619,16.1178039 122.242286,16.1338039 122.626286,16.1764706 C122.967619,16.2191373 123.148952,16.1764706 123.170286,16.0484706 C123.191619,15.9204706 122.999619,15.7178039 122.594286,15.4404706 C122.359619,15.2911373 122.108952,15.1951373 121.842286,15.1524706 C121.575619,15.1098039 121.228952,15.1098039 120.802286,15.1524706 C119.159619,15.2804706 117.799619,15.4191373 116.722286,15.5684706 C115.644952,15.7178039 114.679619,15.8778039 113.826286,16.0484706 C113.954286,15.6644706 113.730286,15.2698039 113.154286,14.8644706 C113.260952,14.8431373 113.383619,14.8218039 113.522286,14.8004706 C113.660952,14.7791373 113.815619,14.7471373 113.986286,14.7044706 C115.244952,14.4058039 116.247619,14.2031373 116.994286,14.0964706 C117.740952,13.9898039 118.412952,13.9364706 119.010286,13.9364706 L119.010286,13.9364706 L119.106286,13.9364706 C119.063619,13.9791373 119.042286,14.0218039 119.042286,14.0644706 C118.892952,14.2991373 118.818286,14.4911373 118.818286,14.6404706 C118.818286,14.7898039 118.860952,14.8858039 118.946286,14.9284706 C119.031619,14.9711373 119.148952,14.9604706 119.298286,14.8964706 C119.447619,14.8324706 119.607619,14.7044706 119.778286,14.5124706 C120.140952,14.0644706 120.450286,13.5844706 120.706286,13.0724706 C120.962286,12.5604706 121.207619,12.0058039 121.442286,11.4084706 C121.655619,10.8538039 121.714286,10.3844706 121.618286,10.0004706 C121.522286,9.61647059 121.324952,9.28580392 121.026286,9.00847059 C120.535619,8.56047059 119.682286,8.40047059 118.466286,8.52847059 C118.743619,8.27247059 119.015619,7.96313725 119.282286,7.60047059 C119.548952,7.23780392 119.831619,6.83247059 120.130286,6.38447059 C120.151619,6.34180392 120.172952,6.30980392 120.194286,6.28847059 L120.226286,6.24847059 L120.226286,6.24847059 L120.258286,6.19247059 C120.663619,6.14980392 121.074286,6.12313725 121.490286,6.11247059 C121.906286,6.10180392 122.348952,6.08580392 122.818286,6.06447059 C123.244952,6.04313725 123.570286,6.01647059 123.794286,5.98447059 C124.018286,5.95247059 124.167619,5.91513725 124.242286,5.87247059 C124.316952,5.82980392 124.327619,5.77113725 124.274286,5.69647059 C124.220952,5.62180392 124.140952,5.54180392 124.034286,5.45647059 C123.778286,5.24313725 123.415619,5.09380392 122.946286,5.00847059 C122.476952,4.92313725 121.986286,4.92313725 121.474286,5.00847059 C121.367619,5.02980392 121.276952,5.04580392 121.202286,5.05647059 C121.127619,5.06713725 121.036952,5.08313725 120.930286,5.10447059 C121.335619,4.37913725 121.532952,3.84047059 121.522286,3.48847059 C121.511619,3.13647059 121.356952,2.84313725 121.058286,2.60847059 C120.823619,2.43780392 120.514286,2.32047059 120.130286,2.25647059 C119.746286,2.19247059 119.372952,2.20313725 119.010286,2.28847059 C118.519619,2.39513725 118.327619,2.49647059 118.434286,2.59247059 C118.540952,2.68847059 118.850286,2.74713725 119.362286,2.76847059 C119.980952,2.81113725 120.322286,3.00847059 120.386286,3.36047059 C120.450286,3.71247059 120.215619,4.36847059 119.682286,5.32847059 C119.383619,5.37113725 119.090286,5.41913725 118.802286,5.47247059 C118.514286,5.52580392 118.188952,5.57380392 117.826286,5.61647059 C117.271619,5.70180392 116.706286,5.80313725 116.130286,5.92047059 C115.554286,6.03780392 114.967619,6.17113725 114.370286,6.32047059 C114.327619,5.97913725 114.274286,5.66447059 114.210286,5.37647059 C114.146286,5.08847059 114.071619,4.78447059 113.986286,4.46447059 C113.879619,4.08047059 113.682286,3.78713725 113.394286,3.58447059 C113.106286,3.38180392 112.812952,3.24847059 112.514286,3.18447059 C112.044952,3.09913725 111.756952,3.09380392 111.650286,3.16847059 C111.543619,3.24313725 111.660952,3.37647059 112.002286,3.56847059 C112.407619,3.80313725 112.716952,4.13380392 112.930286,4.56047059 C113.143619,4.98713725 113.303619,5.64847059 113.410286,6.54447059 C112.684952,6.73647059 111.980952,6.93913725 111.298286,7.15247059 C110.871619,7.30180392 110.471619,7.38713725 110.098286,7.40847059 C109.724952,7.42980392 109.346286,7.32313725 108.962286,7.08847059 C108.748952,6.98180392 108.572952,6.93913725 108.434286,6.96047059 C108.295619,6.98180392 108.311619,7.10980392 108.482286,7.34447059 C108.844952,7.83513725 109.250286,8.16580392 109.698286,8.33647059 C110.146286,8.50713725 110.668952,8.47513725 111.266286,8.24047059 C111.650286,8.06980392 112.023619,7.92047059 112.386286,7.79247059 C112.748952,7.66447059 113.111619,7.54713725 113.474286,7.44047059 C113.516952,7.99513725 113.564952,8.40047059 113.618286,8.65647059 C113.671619,8.91247059 113.804952,9.16847059 114.018286,9.42447059 C114.060952,9.44580392 114.103619,9.49913725 114.146286,9.58447059 C113.506286,9.79780392 112.924952,10.0058039 112.402286,10.2084706 C111.879619,10.4111373 111.500952,10.5978039 111.266286,10.7684706 L111.266286,10.7684706 L111.170286,10.8644706 C110.978286,10.6724706 110.732952,10.5018039 110.434286,10.3524706 C110.135619,10.2031373 109.794286,10.0858039 109.410286,10.0004706 C109.111619,9.93647059 108.946286,9.94713725 108.914286,10.0324706 C108.882286,10.1178039 109.015619,10.2564706 109.314286,10.4484706 C110.124952,10.9178039 110.604952,11.6111373 110.754286,12.5284706 C110.796952,12.8484706 110.882286,13.2378039 111.010286,13.6964706 C111.138286,14.1551373 111.319619,14.5978039 111.554286,15.0244706 C111.724952,15.3231373 111.927619,15.4671373 112.162286,15.4564706 C112.396952,15.4458039 112.492952,15.2804706 112.450286,14.9604706 C112.556952,15.1311373 112.610286,15.3444706 112.610286,15.6004706 C112.610286,15.8564706 112.556952,16.1124706 112.450286,16.3684706 L112.450286,16.3684706 L112.418286,16.3684706 C111.351619,16.6244706 110.450286,16.8324706 109.714286,16.9924706 C108.978286,17.1524706 108.364952,17.2751373 107.874286,17.3604706 C107.383619,17.4458039 106.988952,17.4991373 106.690286,17.5204706 C106.391619,17.5418039 106.167619,17.5311373 106.018286,17.4884706 C105.634286,17.4031373 105.410286,17.4244706 105.346286,17.5524706 C105.282286,17.6804706 105.388952,17.8404706 105.666286,18.0324706 C106.028952,18.2884706 106.375619,18.4591373 106.706286,18.5444706 C107.036952,18.6298039 107.287619,18.6404706 107.458286,18.5764706 C107.735619,18.4911373 108.002286,18.4058039 108.258286,18.3204706 C108.514286,18.2351373 108.796952,18.1498039 109.106286,18.0644706 C109.415619,17.9791373 109.778286,17.8831373 110.194286,17.7764706 C110.610286,17.6698039 111.127619,17.5418039 111.746286,17.3924706 C111.511619,17.7124706 111.244952,18.0538039 110.946286,18.4164706 C110.647619,18.7791373 110.338286,19.1471373 110.018286,19.5204706 C109.698286,19.8938039 109.383619,20.2511373 109.074286,20.5924706 C108.764952,20.9338039 108.471619,21.2431373 108.194286,21.5204706 C107.319619,22.4164706 106.434286,23.1364706 105.538286,23.6804706 C104.642286,24.2244706 103.852952,24.6031373 103.170286,24.8164706 C102.914286,24.9018039 102.791619,24.9711373 102.802286,25.0244706 C102.812952,25.0778039 102.956952,25.0938039 103.234286,25.0724706 C104.002286,25.0511373 104.882286,24.7898039 105.874286,24.2884706 C106.866286,23.7871373 107.820952,23.0778039 108.738286,22.1604706 C109.036952,21.8618039 109.324952,21.5684706 109.602286,21.2804706 C109.879619,20.9924706 110.146286,20.7098039 110.402286,20.4324706 C110.679619,20.7524706 110.887619,21.0191373 111.026286,21.2324706 C111.164952,21.4458039 111.250286,21.6698039 111.282286,21.9044706 C111.314286,22.1391373 111.292952,22.4164706 111.218286,22.7364706 C111.143619,23.0564706 111.020952,23.4831373 110.850286,24.0164706 C110.807619,24.1231373 110.780952,24.2778039 110.770286,24.4804706 C110.759619,24.6831373 110.754286,24.8858039 110.754286,25.0884706 C110.754286,25.2911373 110.759619,25.4884706 110.770286,25.6804706 C110.780952,25.8724706 110.807619,26.0004706 110.850286,26.0644706 C111.020952,26.4698039 111.180952,26.6564706 111.330286,26.6244706 C111.479619,26.5924706 111.607619,26.2991373 111.714286,25.7444706 C111.756952,25.5524706 111.799619,25.3711373 111.842286,25.2004706 C111.884952,25.0298039 111.922286,24.8431373 111.954286,24.6404706 C111.986286,24.4378039 112.018286,24.2031373 112.050286,23.9364706 C112.082286,23.6698039 112.119619,23.3338039 112.162286,22.9284706 C112.183619,22.8218039 112.194286,22.7258039 112.194286,22.6404706 L112.194286,22.6404706 L112.194286,22.3524706 C112.300952,22.3098039 112.407619,22.2724706 112.514286,22.2404706 C112.620952,22.2084706 112.738286,22.1498039 112.866286,22.0644706 C113.164952,21.8938039 113.506286,21.7178039 113.890286,21.5364706 C114.274286,21.3551373 114.668952,21.1684706 115.074286,20.9764706 C115.052952,21.6164706 115.042286,22.2244706 115.042286,22.8004706 L115.042286,22.8004706 L115.042286,24.6244706 C115.042286,25.2644706 115.052952,25.9738039 115.074286,26.7524706 C115.095619,27.5311373 115.116952,28.4538039 115.138286,29.5204706 C115.159619,30.0111373 115.255619,30.2564706 115.426286,30.2564706 Z M114.722286,9.39247059 C114.700952,9.30713725 114.690286,9.14713725 114.690286,8.91247059 C114.647619,8.54980392 114.615619,8.22447059 114.594286,7.93647059 C114.572952,7.64847059 114.540952,7.37647059 114.498286,7.12047059 C115.202286,6.92847059 115.922286,6.76847059 116.658286,6.64047059 C117.394286,6.51247059 118.210286,6.39513725 119.106286,6.28847059 C118.700952,6.90713725 118.284952,7.45113725 117.858286,7.92047059 C117.431619,8.38980392 117.111619,8.67780392 116.898286,8.78447059 C116.855619,8.78447059 116.812952,8.80580392 116.770286,8.84847059 C116.130286,8.97647059 115.447619,9.15780392 114.722286,9.39247059 Z M112.420063,14.044915 L112.226286,14.0324706 C112.119619,13.6484706 112.023619,13.2644706 111.938286,12.8804706 C111.852952,12.4964706 111.756952,12.0804706 111.650286,11.6324706 C111.628952,11.5044706 111.543619,11.3338039 111.394286,11.1204706 C111.415619,11.1204706 111.431619,11.1151373 111.442286,11.1044706 C111.452952,11.0938039 111.479619,11.0884706 111.522286,11.0884706 C111.628952,11.0458039 111.778286,11.0084706 111.970286,10.9764706 C112.162286,10.9444706 112.290286,10.9178039 112.354286,10.8964706 C112.652952,10.8964706 112.930286,10.8644706 113.186286,10.8004706 C113.442286,10.7364706 113.783619,10.6191373 114.210286,10.4484706 C114.423619,10.3631373 114.754286,10.2671373 115.202286,10.1604706 C115.650286,10.0538039 116.119619,9.94180392 116.610286,9.82447059 C117.100952,9.70713725 117.564952,9.60580392 118.002286,9.52047059 C118.439619,9.43513725 118.754286,9.38180392 118.946286,9.36047059 C119.543619,9.27513725 119.991619,9.34980392 120.290286,9.58447059 C120.588952,9.81913725 120.674286,10.1604706 120.546286,10.6084706 C120.354286,11.2271373 120.178286,11.7498039 120.018286,12.1764706 C119.858286,12.6031373 119.714286,12.9231373 119.586286,13.1364706 C119.458286,13.3498039 119.372952,13.4351373 119.330286,13.3924706 C119.095619,13.2431373 118.860952,13.1311373 118.626286,13.0564706 C118.391619,12.9818039 118.071619,12.9871373 117.666286,13.0724706 C117.303619,13.1578039 116.967619,13.2324706 116.658286,13.2964706 L116.658286,13.2964706 L115.730286,13.4884706 C115.420952,13.5524706 115.090286,13.6164706 114.738286,13.6804706 C114.386286,13.7444706 113.986286,13.8191373 113.538286,13.9044706 C113.260952,13.9471373 113.020952,13.9844706 112.818286,14.0164706 C112.615619,14.0484706 112.418286,14.0538039 112.226286,14.0324706 L112.420063,14.044915 Z M113.474286,13.5044706 C113.495619,13.5578039 113.623619,13.5418039 113.858286,13.4564706 C114.519619,13.2644706 115.058286,13.0991373 115.474286,12.9604706 C115.890286,12.8218039 116.242286,12.7044706 116.530286,12.6084706 C116.818286,12.5124706 117.074286,12.4218039 117.298286,12.3364706 C117.522286,12.2511373 117.772952,12.1551373 118.050286,12.0484706 C118.284952,11.9418039 118.428952,11.8618039 118.482286,11.8084706 C118.535619,11.7551373 118.508952,11.6751373 118.402286,11.5684706 C118.146286,11.2911373 117.836952,11.1204706 117.474286,11.0564706 C117.111619,10.9924706 116.652952,11.0671373 116.098286,11.2804706 C115.906286,11.3444706 115.682286,11.4138039 115.426286,11.4884706 C115.170286,11.5631373 114.914286,11.6271373 114.658286,11.6804706 C114.402286,11.7338039 114.167619,11.7711373 113.954286,11.7924706 C113.740952,11.8138039 113.570286,11.8244706 113.442286,11.8244706 C112.610286,11.7818039 112.503619,11.9631373 113.122286,12.3684706 C113.207619,12.4324706 113.420952,12.4858039 113.762286,12.5284706 C114.103619,12.5711373 114.519619,12.5071373 115.010286,12.3364706 C115.543619,12.1658039 115.932952,12.0484706 116.178286,11.9844706 C116.423619,11.9204706 116.716952,11.8458039 117.058286,11.7604706 C117.420952,11.6538039 117.644952,11.6164706 117.730286,11.6484706 C117.815619,11.6804706 117.751619,11.7498039 117.538286,11.8564706 C117.303619,11.9631373 117.068952,12.0644706 116.834286,12.1604706 C116.599619,12.2564706 116.338286,12.3578039 116.050286,12.4644706 C115.762286,12.5711373 115.436952,12.6884706 115.074286,12.8164706 C114.711619,12.9444706 114.284952,13.0938039 113.794286,13.2644706 C113.559619,13.3711373 113.452952,13.4511373 113.474286,13.5044706 Z M118.722286,25.8084706 C118.530286,25.8511373 118.220952,25.7551373 117.794286,25.5204706 C117.367619,25.2858039 117.063619,25.1151373 116.882286,25.0084706 C116.700952,24.9018039 116.492952,24.7738039 116.258286,24.6244706 C116.194286,24.5604706 116.130286,24.5284706 116.066286,24.5284706 C116.108952,23.8031373 116.135619,23.1311373 116.146286,22.5124706 C116.156952,21.8938039 116.162286,21.2324706 116.162286,20.5284706 C116.354286,20.4431373 116.540952,20.3684706 116.722286,20.3044706 C116.903619,20.2404706 117.079619,20.1871373 117.250286,20.1444706 C118.018286,19.9524706 118.642286,19.9471373 119.122286,20.1284706 C119.602286,20.3098039 119.842286,20.6138039 119.842286,21.0404706 C119.842286,21.2751373 119.831619,21.5738039 119.810286,21.9364706 C119.788952,22.2991373 119.751619,22.6778039 119.698286,23.0724706 C119.644952,23.4671373 119.575619,23.8564706 119.490286,24.2404706 C119.404952,24.6244706 119.308952,24.9551373 119.202286,25.2324706 C119.074286,25.5738039 118.914286,25.7658039 118.722286,25.8084706 Z M133.026286,29.8244706 C133.111619,29.8778039 133.324952,29.8618039 133.666286,29.7764706 C135.330286,29.3498039 137.015619,28.2991373 138.722286,26.6244706 C140.428952,24.9498039 142.028952,22.6084706 143.522286,19.6004706 C143.543619,19.6858039 143.586286,19.7711373 143.650286,19.8564706 C143.842286,20.2618039 144.055619,20.8058039 144.290286,21.4884706 C144.524952,22.1711373 144.706286,22.8218039 144.834286,23.4404706 C145.111619,24.6564706 145.362286,25.6431373 145.586286,26.4004706 C145.810286,27.1578039 145.996952,27.6538039 146.146286,27.8884706 C146.274286,28.1018039 146.391619,28.1924706 146.498286,28.1604706 C146.604952,28.1284706 146.679619,27.9524706 146.722286,27.6324706 L146.722286,27.6324706 L146.722286,27.4244706 C146.722286,27.3284706 146.711619,27.2164706 146.690286,27.0884706 C146.903619,27.0671373 147.266286,26.9391373 147.778286,26.7044706 C148.183619,26.5338039 148.652952,26.3844706 149.186286,26.2564706 C149.719619,26.1284706 150.268952,26.0324706 150.834286,25.9684706 C151.399619,25.9044706 151.954286,25.8778039 152.498286,25.8884706 C153.042286,25.8991373 153.538286,25.9471373 153.986286,26.0324706 C154.775619,26.2031373 155.255619,26.2564706 155.426286,26.1924706 C155.596952,26.1284706 155.575619,25.9151373 155.362286,25.5524706 C155.212952,25.2964706 154.914286,25.0938039 154.466286,24.9444706 C154.764952,24.5818039 155.047619,24.1711373 155.314286,23.7124706 C155.580952,23.2538039 155.863619,22.7151373 156.162286,22.0964706 C156.524952,21.3498039 156.700952,20.7471373 156.690286,20.2884706 C156.679619,19.8298039 156.460952,19.3978039 156.034286,18.9924706 C155.095619,18.0964706 153.868952,17.9258039 152.354286,18.4804706 C151.756952,18.7151373 150.876952,18.9604706 149.714286,19.2164706 C148.551619,19.4724706 146.946286,19.8031373 144.898286,20.2084706 C144.599619,19.5684706 144.322286,19.1098039 144.066286,18.8324706 C144.044952,18.7684706 144.002286,18.7258039 143.938286,18.7044706 C144.172952,18.2351373 144.391619,17.7498039 144.594286,17.2484706 C144.796952,16.7471373 145.004952,16.2404706 145.218286,15.7284706 C145.815619,15.5791373 146.380952,15.4511373 146.914286,15.3444706 C147.447619,15.2378039 147.927619,15.1631373 148.354286,15.1204706 C149.762286,14.9284706 150.930286,14.8698039 151.858286,14.9444706 C152.786286,15.0191373 153.538286,15.1738039 154.114286,15.4084706 C154.412952,15.5151373 154.599619,15.5258039 154.674286,15.4404706 C154.748952,15.3551373 154.668952,15.1844706 154.434286,14.9284706 C154.135619,14.6298039 153.778286,14.3951373 153.362286,14.2244706 C152.946286,14.0538039 152.332952,13.9471373 151.522286,13.9044706 L151.522286,13.9044706 L151.010286,13.9044706 C150.839619,13.9044706 150.658286,13.9151373 150.466286,13.9364706 C150.679619,13.6378039 150.919619,13.2751373 151.186286,12.8484706 C151.452952,12.4218039 151.735619,11.9631373 152.034286,11.4724706 C152.418286,11.3231373 152.791619,11.1738039 153.154286,11.0244706 C153.516952,10.8751373 153.868952,10.7364706 154.210286,10.6084706 C154.935619,10.3311373 155.660952,10.1124706 156.386286,9.95247059 C157.111619,9.79247059 157.655619,9.72313725 158.018286,9.74447059 C158.508952,9.78713725 158.791619,9.72313725 158.866286,9.55247059 C158.940952,9.38180392 158.828952,9.15780392 158.530286,8.88047059 C158.274286,8.62447059 157.863619,8.42713725 157.298286,8.28847059 C156.732952,8.14980392 155.863619,8.05913725 154.690286,8.01647059 L154.690286,8.01647059 L154.018286,8.01647059 C154.252952,7.58980392 154.434286,7.22713725 154.562286,6.92847059 C154.924952,6.16047059 155.068952,5.53113725 154.994286,5.04047059 C154.919619,4.54980392 154.540952,4.06980392 153.858286,3.60047059 C153.474286,3.32313725 153.063619,3.16313725 152.626286,3.12047059 C152.188952,3.07780392 151.628952,3.14180392 150.946286,3.31247059 C150.263619,3.48313725 149.474286,3.63780392 148.578286,3.77647059 C147.682286,3.91513725 146.871619,3.98447059 146.146286,3.98447059 C145.591619,3.98447059 145.292952,4.05380392 145.250286,4.19247059 C145.207619,4.33113725 145.452952,4.48580392 145.986286,4.65647059 C146.562286,4.89113725 147.218286,4.98180392 147.954286,4.92847059 C148.690286,4.87513725 149.708952,4.67780392 151.010286,4.33647059 C151.522286,4.20847059 151.975619,4.17113725 152.370286,4.22447059 C152.764952,4.27780392 153.079619,4.39513725 153.314286,4.57647059 C153.548952,4.75780392 153.708952,4.97647059 153.794286,5.23247059 C153.879619,5.48847059 153.858286,5.74447059 153.730286,6.00047059 C153.580952,6.32047059 153.426286,6.65647059 153.266286,7.00847059 C153.106286,7.36047059 152.930286,7.72847059 152.738286,8.11247059 C151.948952,8.17647059 151.074286,8.27780392 150.114286,8.41647059 C149.154286,8.55513725 148.130286,8.72047059 147.042286,8.91247059 C147.042286,8.52847059 147.010286,8.20847059 146.946286,7.95247059 C146.775619,7.14180392 146.220952,6.64047059 145.282286,6.44847059 C144.748952,6.34180392 144.439619,6.52313725 144.354286,6.99247059 C144.290286,7.18447059 144.306286,7.29647059 144.402286,7.32847059 C144.498286,7.36047059 144.599619,7.30180392 144.706286,7.15247059 C145.004952,6.72580392 145.314286,6.72580392 145.634286,7.15247059 C145.868952,7.47247059 146.012952,7.77113725 146.066286,8.04847059 C146.119619,8.32580392 146.114286,8.67780392 146.050286,9.10447059 C144.770286,9.33913725 143.532952,9.60047059 142.338286,9.88847059 C141.143619,10.1764706 140.034286,10.4698039 139.010286,10.7684706 C138.412952,10.9391373 137.948952,11.0404706 137.618286,11.0724706 C137.287619,11.1044706 137.004952,11.1098039 136.770286,11.0884706 C136.364952,11.0671373 136.146286,11.1151373 136.114286,11.2324706 C136.082286,11.3498039 136.194286,11.5898039 136.450286,11.9524706 C136.514286,12.0591373 136.599619,12.1338039 136.706286,12.1764706 C136.812952,12.2191373 136.988952,12.2351373 137.234286,12.2244706 C137.479619,12.2138039 137.820952,12.1551373 138.258286,12.0484706 C138.695619,11.9418039 139.266286,11.7818039 139.970286,11.5684706 C141.954286,10.9711373 143.916952,10.4911373 145.858286,10.1284706 C145.666286,10.9391373 145.452952,11.7338039 145.218286,12.5124706 C144.983619,13.2911373 144.727619,14.0751373 144.450286,14.8644706 C143.831619,15.0138039 143.207619,15.1684706 142.578286,15.3284706 C141.948952,15.4884706 141.324952,15.6751373 140.706286,15.8884706 C140.215619,16.0591373 139.676952,16.2138039 139.090286,16.3524706 C138.503619,16.4911373 138.018286,16.5818039 137.634286,16.6244706 C137.122286,16.6671373 136.770286,16.7311373 136.578286,16.8164706 C136.386286,16.9018039 136.236952,17.0084706 136.130286,17.1364706 C135.852952,17.4778039 135.938286,17.7124706 136.386286,17.8404706 C136.663619,17.9258039 136.972952,17.9471373 137.314286,17.9044706 C137.655619,17.8618039 137.986286,17.7871373 138.306286,17.6804706 C139.031619,17.4031373 139.906286,17.1151373 140.930286,16.8164706 C141.954286,16.5178039 142.988952,16.2404706 144.034286,15.9844706 C143.394286,17.6484706 142.663619,19.2058039 141.842286,20.6564706 C141.020952,22.1071373 140.140952,23.4138039 139.202286,24.5764706 C138.263619,25.7391373 137.287619,26.7471373 136.274286,27.6004706 C135.260952,28.4538039 134.242286,29.1151373 133.218286,29.5844706 C133.004952,29.6911373 132.940952,29.7711373 133.026286,29.8244706 Z M152.546286,10.6404706 C152.695619,10.3844706 152.839619,10.1338039 152.978286,9.88847059 C153.116952,9.64313725 153.260952,9.40313725 153.410286,9.16847059 C153.772952,9.12580392 154.124952,9.10447059 154.466286,9.10447059 L154.466286,9.10447059 L155.522286,9.10447059 C155.266286,9.27513725 154.882286,9.48847059 154.370286,9.74447059 C153.858286,10.0004706 153.250286,10.2991373 152.546286,10.6404706 Z M146.018286,13.4564706 C146.146286,13.0938039 146.268952,12.7204706 146.386286,12.3364706 C146.503619,11.9524706 146.615619,11.5684706 146.722286,11.1844706 C146.786286,10.9711373 146.834286,10.7631373 146.866286,10.5604706 C146.898286,10.3578039 146.935619,10.1391373 146.978286,9.90447059 C148.770286,9.58447059 150.498286,9.36047059 152.162286,9.23247059 C151.991619,9.59513725 151.810286,9.94713725 151.618286,10.2884706 C151.426286,10.6298039 151.234286,10.9711373 151.042286,11.3124706 C150.423619,11.5898039 149.762286,11.8724706 149.058286,12.1604706 C148.354286,12.4484706 147.607619,12.7524706 146.818286,13.0724706 C146.647619,13.1578039 146.492952,13.2324706 146.354286,13.2964706 C146.215619,13.3604706 146.103619,13.4138039 146.018286,13.4564706 Z M145.634286,14.6084706 C145.676952,14.4378039 145.730286,14.2671373 145.794286,14.0964706 C145.858286,13.9258039 145.922286,13.7551373 145.986286,13.5844706 C146.071619,13.5418039 146.188952,13.5044706 146.338286,13.4724706 C146.487619,13.4404706 146.668952,13.3818039 146.882286,13.2964706 C147.351619,13.1258039 147.916952,12.9284706 148.578286,12.7044706 C149.239619,12.4804706 149.932952,12.2404706 150.658286,11.9844706 C150.423619,12.3684706 150.204952,12.7258039 150.002286,13.0564706 C149.799619,13.3871373 149.591619,13.7018039 149.378286,14.0004706 C148.823619,14.0644706 148.231619,14.1444706 147.602286,14.2404706 C146.972952,14.3364706 146.316952,14.4591373 145.634286,14.6084706 Z M146.498286,25.9684706 C146.391619,25.3498039 146.247619,24.6458039 146.066286,23.8564706 C145.884952,23.0671373 145.687619,22.3311373 145.474286,21.6484706 C145.431619,21.5418039 145.388952,21.4298039 145.346286,21.3124706 L145.282286,21.1404706 L145.282286,21.1404706 L145.218286,20.9764706 C146.562286,20.8058039 147.868952,20.5978039 149.138286,20.3524706 C150.407619,20.1071373 151.692952,19.7818039 152.994286,19.3764706 C153.420952,19.2484706 153.810286,19.2058039 154.162286,19.2484706 C154.514286,19.2911373 154.802286,19.3978039 155.026286,19.5684706 C155.250286,19.7391373 155.399619,19.9524706 155.474286,20.2084706 C155.548952,20.4644706 155.522286,20.7524706 155.394286,21.0724706 C155.138286,21.6698039 154.855619,22.2724706 154.546286,22.8804706 C154.236952,23.4884706 153.868952,24.1124706 153.442286,24.7524706 L153.442286,24.7524706 L153.314286,24.7524706 C153.015619,24.7524706 152.620952,24.7738039 152.130286,24.8164706 C151.639619,24.8591373 151.127619,24.9231373 150.594286,25.0084706 C150.060952,25.0938039 149.532952,25.1844706 149.010286,25.2804706 C148.487619,25.3764706 148.044952,25.4778039 147.682286,25.5844706 C147.383619,25.6698039 147.143619,25.7444706 146.962286,25.8084706 C146.780952,25.8724706 146.626286,25.9258039 146.498286,25.9684706 Z" id="inner" fill="#D9B79B" fill-rule="nonzero"></path>
    </g>
</svg>