<?xml version="1.0" encoding="UTF-8"?>
<svg width="48px" height="48px" viewBox="0 0 48 48" version="1.1" xmlns="http://www.w3.org/2000/svg" xmlns:xlink="http://www.w3.org/1999/xlink">
    <title>icon-modal-close</title>
    <defs>
        <path d="M24.0082517,40 C32.7550284,40 40,32.7550284 40,23.9917483 C40,15.2449716 32.738525,8 23.9917483,8 C15.2449716,8 8,15.2449716 8,23.9917483 C8,32.7550284 15.261475,40 24.0082517,40 Z M29.5203713,30.9231563 C29.1407942,30.9231563 28.7942238,30.7581227 28.5466735,30.5105725 L23.9917483,25.9391439 L19.4368231,30.5105725 C19.1892728,30.7746261 18.8427024,30.9231563 18.4631253,30.9231563 C17.7039711,30.9231563 17.0933471,30.2960289 17.0933471,29.5368747 C17.0933471,29.1572976 17.2418773,28.8272305 17.4894275,28.5796802 L22.0608561,24.0082517 L17.4894275,19.4368231 C17.2418773,19.1892728 17.0933471,18.8592058 17.0933471,18.496132 C17.0933471,17.7204745 17.7039711,17.1263538 18.4631253,17.1263538 C18.8427024,17.1263538 19.1727695,17.274884 19.4203198,17.5224342 L23.9917483,22.0938628 L28.5961836,17.5224342 C28.8767406,17.2253739 29.1738009,17.1098504 29.5368747,17.1098504 C30.3125322,17.1098504 30.9231563,17.7039711 30.9231563,18.4796287 C30.9231563,18.8427024 30.7911294,19.1562661 30.5105725,19.4203198 L25.9391439,24.0082517 L30.4940691,28.5466735 C30.7581227,28.8272305 30.9066529,29.1407942 30.9066529,29.5368747 C30.9066529,30.2960289 30.2960289,30.9231563 29.5203713,30.9231563 Z" id="path-1"></path>
        <filter x="-15.6%" y="-12.5%" width="131.2%" height="131.2%" filterUnits="objectBoundingBox" id="filter-2">
            <feOffset dx="0" dy="1" in="SourceAlpha" result="shadowOffsetOuter1"></feOffset>
            <feGaussianBlur stdDeviation="1.5" in="shadowOffsetOuter1" result="shadowBlurOuter1"></feGaussianBlur>
            <feColorMatrix values="0 0 0 0 0   0 0 0 0 0   0 0 0 0 0  0 0 0 0.1 0" type="matrix" in="shadowBlurOuter1"></feColorMatrix>
        </filter>
    </defs>
    <g id="icon-modal-close" stroke="none" stroke-width="1" fill="none" fill-rule="evenodd">
        <g id="icon" fill-rule="nonzero">
            <use fill="black" fill-opacity="1" filter="url(#filter-2)" xlink:href="#path-1"></use>
            <use fill="#FFFFFF" xlink:href="#path-1"></use>
        </g>
    </g>
</svg>