<?xml version="1.0" encoding="UTF-8"?>
<svg width="24px" height="24px" viewBox="0 0 24 24" version="1.1" xmlns="http://www.w3.org/2000/svg" xmlns:xlink="http://www.w3.org/1999/xlink">
    <title>icon-select-arrow</title>
    <g id="icon-select-arrow" stroke="none" stroke-width="1" fill="none" fill-rule="evenodd">
        <path d="M16,13.3636364 C16,13.4867424 15.9505208,13.5932765 15.8515625,13.6832386 L12.3515625,16.8650568 C12.2526042,16.9550189 12.1354167,17 12,17 C11.8645833,17 11.7473958,16.9550189 11.6484375,16.8650568 L8.1484375,13.6832386 C8.04947917,13.5932765 8,13.4867424 8,13.3636364 C8,13.2405303 8.04947917,13.1339962 8.1484375,13.0440341 C8.24739584,12.954072 8.36458334,12.9090909 8.5,12.9090909 L15.5,12.9090909 C15.6354167,12.9090909 15.7526042,12.954072 15.8515625,13.0440341 C15.9505208,13.1339962 16,13.2405303 16,13.3636364 Z M16,10.6363636 C16,10.7594697 15.9505208,10.8660038 15.8515625,10.9559659 C15.7526042,11.045928 15.6354167,11.0909091 15.5,11.0909091 L8.5,11.0909091 C8.36458334,11.0909091 8.24739584,11.045928 8.1484375,10.9559659 C8.04947917,10.8660038 8,10.7594697 8,10.6363636 C8,10.5132576 8.04947917,10.4067235 8.1484375,10.3167614 L11.6484375,7.13494318 C11.7473958,7.04498106 11.8645833,7 12,7 C12.1354167,7 12.2526042,7.04498106 12.3515625,7.13494318 L15.8515625,10.3167614 C15.9505208,10.4067235 16,10.5132576 16,10.6363636 Z" id="形状" fill="#34D2FE" fill-rule="nonzero"></path>
    </g>
</svg>