<?xml version="1.0" encoding="UTF-8"?>
<svg width="24px" height="24px" viewBox="0 0 24 24" version="1.1" xmlns="http://www.w3.org/2000/svg" xmlns:xlink="http://www.w3.org/1999/xlink">
    <title>icon-smiling</title>
    <g id="icon-smiling" stroke="none" stroke-width="1" fill="none" fill-rule="evenodd">
        <path d="M12.0041258,20 C16.3775142,20 20,16.3775142 20,11.9958742 C20,7.62248582 16.3692625,4 11.9958742,4 C7.62248582,4 4,7.62248582 4,11.9958742 C4,16.3775142 7.63073749,20 12.0041258,20 Z M9.56162971,11.23672 C9.08303249,11.23672 8.68695204,10.8241362 8.68695204,10.2300155 C8.68695204,9.63589479 9.08303249,9.22331099 9.56162971,9.22331099 C10.0319752,9.22331099 10.4363074,9.63589479 10.4363074,10.2300155 C10.4363074,10.8241362 10.0319752,11.23672 9.56162971,11.23672 Z M14.2733368,11.23672 C13.7947396,11.23672 13.3986591,10.8241362 13.3986591,10.2300155 C13.3986591,9.63589479 13.7947396,9.22331099 14.2733368,9.22331099 C14.7436823,9.22331099 15.1480144,9.63589479 15.1480144,10.2300155 C15.1480144,10.8241362 14.7436823,11.23672 14.2733368,11.23672 Z M11.896854,15.8494069 C9.96596184,15.8494069 8.74471377,14.4796287 8.74471377,13.9515214 C8.74471377,13.8442496 8.81897886,13.7947396 8.90974729,13.860753 C9.47086127,14.3145952 10.4940691,14.8261991 11.896854,14.8261991 C13.299639,14.8261991 14.3063435,14.3393502 14.8922125,13.860753 C14.9747292,13.7947396 15.057246,13.8442496 15.057246,13.9515214 C15.057246,14.4796287 13.8359979,15.8494069 11.896854,15.8494069 Z" id="icon" fill="#FFD200" fill-rule="nonzero"></path>
    </g>
</svg>