<?xml version="1.0" encoding="UTF-8"?>
<svg width="24px" height="24px" viewBox="0 0 24 24" version="1.1" xmlns="http://www.w3.org/2000/svg" xmlns:xlink="http://www.w3.org/1999/xlink">
    <title>icon-dept</title>
    <g id="icon-dept" stroke="none" stroke-width="1" fill="none" fill-rule="evenodd">
        <path d="M9.15736041,8.75 C10.4243655,8.75 11.4720812,7.66666667 11.4720812,6.375 C11.4720812,5.08333333 10.4243655,4 9.15736041,4 C7.89847716,4 6.84263959,5.08333333 6.84263959,6.375 C6.84263959,7.65833333 7.8822335,8.75 9.15736041,8.75 Z M14.8426396,8.75 C16.1096447,8.75 17.1573604,7.66666667 17.1573604,6.375 C17.1573604,5.08333333 16.1096447,4 14.8426396,4 C13.5756345,4 12.5279188,5.08333333 12.5279188,6.375 C12.5279188,7.66666667 13.5756345,8.75 14.8426396,8.75 Z M12,13.975 C13.2670051,13.975 14.3147208,12.9 14.3147208,11.6 C14.3147208,10.3 13.2670051,9.225 12,9.225 C10.7329949,9.225 9.68527919,10.3 9.68527919,11.6 C9.68527919,12.9 10.7329949,13.975 12,13.975 Z M6.31472081,13.975 C7.58172589,13.975 8.63756345,12.9 8.63756345,11.6 C8.63756345,10.3 7.58172589,9.225 6.31472081,9.225 C5.05583756,9.225 4,10.3 4,11.6 C4,12.8916667 5.04771574,13.975 6.31472081,13.975 Z M17.6852792,13.975 C18.9522843,13.975 20,12.9 20,11.6 C20,10.3 18.9522843,9.225 17.6852792,9.225 C16.4182741,9.225 15.3705584,10.3 15.3705584,11.6 C15.3705584,12.9 16.4182741,13.975 17.6852792,13.975 Z M9.15736041,19.2 C10.4243655,19.2 11.4720812,18.1166667 11.4720812,16.825 C11.4720812,15.5333333 10.4243655,14.4583333 9.15736041,14.4583333 C7.89847716,14.4583333 6.84263959,15.5333333 6.84263959,16.825 C6.84263959,18.1083333 7.8822335,19.2 9.15736041,19.2 Z M14.8426396,19.2 C16.1096447,19.2 17.1573604,18.1166667 17.1573604,16.825 C17.1573604,15.5333333 16.1096447,14.4583333 14.8426396,14.4583333 C13.5756345,14.4583333 12.5279188,15.5333333 12.5279188,16.825 C12.5279188,18.1166667 13.5756345,19.2 14.8426396,19.2 Z" id="icon" fill="#34D2FE" fill-rule="nonzero"></path>
    </g>
</svg>