<?xml version="1.0" encoding="UTF-8"?>
<svg width="24px" height="24px" viewBox="0 0 24 24" version="1.1" xmlns="http://www.w3.org/2000/svg" xmlns:xlink="http://www.w3.org/1999/xlink">
    <title>icon-tips</title>
    <defs>
        <path d="M11.9955042,20.6 C12.1393706,20.6 12.3461785,20.5471338 12.5709698,20.4414013 C17.4174695,17.97431 19,16.7143312 19,13.7185775 L19,7.46273885 C19,6.56401274 18.613359,6.26443737 17.8580604,5.95605096 C16.8869621,5.55955414 13.7219011,4.44055202 12.7597945,4.12335456 C12.5170199,4.0440552 12.256262,4 11.9955042,4 C11.743738,4 11.4739884,4.05286624 11.2312139,4.12335456 C10.2691073,4.42292994 7.10404624,5.56836518 6.13294798,5.95605096 C5.37764933,6.25562633 5,6.56401274 5,7.46273885 L5,13.7185775 C5,16.7143312 6.65446371,17.8333333 11.4290302,20.4414013 C11.6448298,20.5559448 11.8606294,20.6 11.9955042,20.6 Z M11.9955042,13.392569 C11.5279383,13.392569 11.2761721,13.1370488 11.2491972,12.6700637 L11.1323057,8.6522293 C11.1143224,8.18524416 11.4829801,7.84161359 11.9865125,7.84161359 C12.490045,7.84161359 12.8676943,8.18524416 12.849711,8.66104034 L12.7238279,12.6700637 C12.7058446,13.1458599 12.4450867,13.392569 11.9955042,13.392569 Z M11.9955042,16.4852442 C11.4829801,16.4852442 11.0154143,16.0975584 11.0154143,15.568896 C11.0154143,15.0402335 11.4739884,14.6525478 11.9955042,14.6525478 C12.5170199,14.6525478 12.9755941,15.0314225 12.9755941,15.568896 C12.9755941,16.1063694 12.5080283,16.4852442 11.9955042,16.4852442 Z" id="path-1"></path>
        <filter x="-35.7%" y="-24.1%" width="171.4%" height="160.2%" filterUnits="objectBoundingBox" id="filter-2">
            <feOffset dx="0" dy="1" in="SourceAlpha" result="shadowOffsetOuter1"></feOffset>
            <feGaussianBlur stdDeviation="1.5" in="shadowOffsetOuter1" result="shadowBlurOuter1"></feGaussianBlur>
            <feColorMatrix values="0 0 0 0 0   0 0 0 0 0   0 0 0 0 0  0 0 0 0.1 0" type="matrix" in="shadowBlurOuter1"></feColorMatrix>
        </filter>
    </defs>
    <g id="icon-tips" stroke="none" stroke-width="1" fill="none" fill-rule="evenodd">
        <g id="icon" fill-rule="nonzero">
            <use fill="black" fill-opacity="1" filter="url(#filter-2)" xlink:href="#path-1"></use>
            <use fill="#FFFFFF" xlink:href="#path-1"></use>
        </g>
    </g>
</svg>