<?xml version="1.0" encoding="UTF-8"?>
<svg width="98px" height="32px" viewBox="0 0 98 32" version="1.1" xmlns="http://www.w3.org/2000/svg" xmlns:xlink="http://www.w3.org/1999/xlink">
    <title>LOGO</title>
    <defs>
        <linearGradient x1="50%" y1="0%" x2="50%" y2="100%" id="linearGradient-1">
            <stop stop-color="#37C9FF" offset="0%"></stop>
            <stop stop-color="#00FFDC" offset="100%"></stop>
        </linearGradient>
        <linearGradient x1="50%" y1="0%" x2="50%" y2="100%" id="linearGradient-2">
            <stop stop-color="#37C9FF" offset="0%"></stop>
            <stop stop-color="#00FFDC" offset="100%"></stop>
        </linearGradient>
        <linearGradient x1="50%" y1="0%" x2="50%" y2="100%" id="linearGradient-3">
            <stop stop-color="#37C9FF" offset="0%"></stop>
            <stop stop-color="#00FFDC" offset="100%"></stop>
        </linearGradient>
    </defs>
    <g id="LOGO" stroke="none" stroke-width="1" fill="none" fill-rule="evenodd">
        <g fill-rule="nonzero">
            <path d="M35.9391423,9.37278917 C36.8927667,11.4385561 37.3845156,13.6805617 37.3813784,15.9481652 L37.3813784,16.0516641 C37.3813784,24.8596798 30.1007498,31.9999974 21.1195102,31.9999974 L21.0141436,31.9999974 C19.6570441,32.0007507 18.3051603,31.8352502 16.9899063,31.5072981 L18.1315892,27.8251754 C19.0926323,28.0537665 20.0780479,28.1691203 21.0669535,28.1687921 C27.9195421,28.1687921 33.4746352,22.7208517 33.4746352,16.0005356 C33.4747852,15.0056038 33.3506514,14.0144008 33.1050076,13.0490746 L22.7128429,13.0490746 L23.8526263,9.37278917 L35.9391423,9.37278917 Z M21.1194258,1.77635684e-15 C26.8957212,1.77635684e-15 31.9680948,2.95390364 34.8530553,7.40502421 L29.8490265,7.40502421 C27.5215038,5.11724094 24.3614034,3.83174476 21.0660568,3.83220302 C17.7707103,3.83266127 14.6109817,5.11903628 12.2841207,7.40746679 L17.9076429,7.40746679 L17.8978492,7.4385993 L21.2758716,9.7869094 L15.3117652,31.0166299 L6.54704225,31.0166299 L6.54704225,30.498845 L14.1213248,30.498845 C13.6137386,30.2651715 13.1188065,30.0059264 12.6385088,29.7221469 L3.22073227,29.7221469 L3.22073227,29.2043206 L11.8181182,29.2043206 C11.4542318,28.9591521 11.1011803,28.7002527 10.7589639,28.4276225 L3.55271368e-14,28.4276225 L3.55271368e-14,27.9097133 L10.1418345,27.9097133 C6.70708366,24.8888823 4.74685228,20.5763463 4.75188346,16.051747 L4.75188346,15.9482479 C4.75111751,14.5317384 4.94259363,13.1214295 5.32126857,11.7544673 L9.4359709,11.7544673 C7.6951335,16.3514334 8.93523581,21.52392 12.5824484,24.8784752 L17.1364739,9.7869094 L6.01049979,9.7869094 C8.46795714,4.03824225 14.2598295,1.77635684e-15 21.0138903,1.77635684e-15 L21.1194258,1.77635684e-15 Z" id="形状结合" fill="url(#linearGradient-1)"></path>
            <g id="编组" transform="translate(48.000000, 5.000000)">
                <path d="M2.96819635,5.24559849 L1.78369987,10.8063539 C1.7553612,11.0533174 1.7818311,11.2312761 1.86310956,11.3402302 C1.94438802,11.4491843 2.09444355,11.5078587 2.31327632,11.5162535 L4.39466711,11.5162535 C4.66983982,11.4516809 4.8650395,11.3548911 4.98026607,11.225884 C5.09549264,11.0968769 5.14389762,10.9209281 5.1254811,10.6980376 L4.56754947,6.80847918 L6.02420967,6.80847918 L6.61879607,10.6980376 C6.75152004,11.255174 6.66559876,11.7476841 6.36103225,12.1755682 C6.05646565,12.6034522 5.59621028,12.8782627 4.98026607,13 L1.55204358,13 C1.00204621,12.8696646 0.61643649,12.6987533 0.395214347,12.4872659 C0.173992126,12.2757785 0.0422540366,11.9521077 0,11.5162535 L1.17219146,5.24559849 L2.96819635,5.24559849 Z M48.2279532,0 C48.7497095,0.115091463 49.1424402,0.30106617 49.4061468,0.557924127 C49.6618619,0.806998514 49.8557467,1.1806735 49.9878011,1.67894907 L50,1.72602745 L50,11.1968135 C49.8760959,11.6642112 49.6781446,12.0303772 49.4061468,12.2953115 C49.143215,12.5514148 48.7814758,12.7417685 48.3209292,12.8663727 L48.2729343,12.8790282 L46.5608481,12.8790282 L46.5608481,11.4151862 L47.8026948,11.4151862 C47.995901,11.3867671 48.1526475,11.3139763 48.2729343,11.1968135 C48.3874929,11.08523 48.4414915,10.9601756 48.4349307,10.8216504 L48.4334922,10.8007706 L48.4334922,2.28177172 C48.4322298,1.97951444 48.3637166,1.76226698 48.2279532,1.63002934 C48.0970383,1.50251447 47.8758334,1.42700888 47.5643384,1.40351258 L47.5293563,1.40111591 L37.9534533,1.40111591 C37.6945246,1.42698368 37.5,1.50328815 37.3698797,1.63002934 C37.245181,1.75148964 37.1826846,1.91629707 37.1823907,2.12445163 L37.1827051,2.15184805 L37.1827051,12.9795278 L35.6963904,12.9795278 L35.6963904,1.63002934 C35.7934238,1.1879873 35.9819232,0.830618893 36.2618885,0.557924127 C36.5325217,0.294319185 36.8866616,0.111749321 37.324308,0.0102145335 L37.3698797,0 L48.2279532,0 Z M11.632531,5.05721749 C11.5423447,7.06529914 11.6586059,8.43974921 11.9813147,9.18056787 C12.2993464,9.91065003 13.081586,10.6244642 14.3280335,11.3220105 L14.383325,11.3527741 L14.383325,12.8790282 C13.6988239,12.57243 13.0466681,12.2094155 12.4268575,11.7899846 C11.8070468,11.3705538 11.2808459,10.9223751 10.8482549,10.4454486 C10.3484429,10.9504001 9.81513405,11.3985788 9.24832854,11.7899846 C8.69980697,12.1687645 8.02673612,12.5209552 7.22911589,12.8465567 L7.14893875,12.8790282 L7.14893875,11.3527741 C8.26954061,10.7489575 9.06608355,10.1008218 9.53856763,9.40836706 C10.0063268,8.72283679 10.1900596,7.29446095 10.089766,5.12323948 L10.0866399,5.05721749 L11.632531,5.05721749 Z M21.8306426,0 L21.3297269,1.21876494 L32.1989233,1.21876494 L32.1989233,2.66648053 L20.6944491,2.66648053 L19.6455377,5.05721749 C19.5943961,5.19673293 19.5943961,5.30344861 19.6455377,5.3773646 C19.6966791,5.4512806 19.8008519,5.49512826 19.9580558,5.50890744 L24.3995738,5.50890744 L24.3995738,3.3309691 L25.8131281,3.3309691 L25.8131281,5.50890744 L31.8909909,5.50890744 L31.8909909,6.94850864 L25.8131281,6.94850864 L25.8131281,9.09741377 L32.1989233,9.09741377 L32.1989233,10.5536905 L25.8131281,10.5536905 L25.8131281,12.8790282 L24.3995738,12.8790282 L24.3995738,10.5536905 L17.7888481,10.5536905 L17.7888481,9.09741377 L24.3995738,9.09741377 L24.3995738,6.94850864 L19.6455377,6.94850864 C19.0319147,6.89016767 18.5968809,6.72050279 18.3404361,6.43951408 C18.0839914,6.15852545 18.0125303,5.73424994 18.1260529,5.1666877 L19.1232219,2.66648053 L17.7888481,2.66648053 L17.7888481,1.21876494 L19.7871606,1.21876494 L20.3006105,0 L21.8306426,0 Z M39.2151048,2.88914301 C39.3678309,3.55687222 39.5082054,4.11033976 39.6362286,4.54954554 C39.7642518,4.98875139 39.9120909,5.42405118 40.0797461,5.85544505 L41.05819,2.88914301 L42.3960031,2.88914301 C42.0461843,4.16674996 41.7691037,5.11164485 41.5647614,5.72382774 C41.3604191,6.33601062 41.1249159,6.92674985 40.8582517,7.49604543 L42.3960031,9.1760268 L43.038083,9.1760268 L44.5999098,7.49604543 C44.3485398,6.95665818 44.0922988,6.27445187 43.8311866,5.44942659 C43.5700752,4.62440131 43.3403036,3.77097341 43.1418736,2.88914301 L44.5999098,2.88914301 L45.3271315,5.85544505 L46.2661383,2.88914301 L47.5963082,2.88914301 C47.3207682,4.00497817 47.0737755,4.896447 46.8553294,5.56354946 C46.6368825,6.23065193 46.3810241,6.87481722 46.0877528,7.49604543 L47.5963082,9.1760268 L47.5963082,10.8290594 C47.1470276,10.5218243 46.7406799,10.1988607 46.3772659,9.86016861 C46.0138511,9.5214766 45.6638068,9.13950363 45.3271315,8.71424969 C45.0746486,9.02877745 44.7572894,9.37099727 44.3750554,9.74090907 C43.9928214,10.110821 43.5817607,10.4735377 43.1418736,10.8290594 L42.3960031,10.8290594 C41.8847267,10.548117 41.438789,10.2251535 41.05819,9.86016861 C40.677591,9.49518383 40.3884346,9.11321085 40.190721,8.71424969 C39.9748179,9.00411937 39.6496126,9.34633919 39.2151048,9.74090907 C38.7805972,10.135479 38.3295132,10.4981958 37.8618531,10.8290594 L37.8618531,9.1760268 L39.3847008,7.49604543 C39.1531455,7.09194448 38.8912234,6.44777918 38.5989343,5.56354946 C38.3066452,4.67931974 38.0609515,3.78785092 37.8618531,2.88914301 L39.2151048,2.88914301 Z M14.5467303,0.0319761306 L14.5467303,1.48036172 L11.5727142,1.4803263 L11.5727142,2.66647786 L13.1887017,2.66648053 C13.5099913,2.72447898 13.7693743,2.84474938 13.9668507,3.02729175 L13.9902507,3.04949573 C14.1827747,3.23701986 14.3113191,3.484797 14.3758843,3.79282711 L14.383325,3.83007997 L14.383325,9.61718287 L12.9130223,9.61718287 L12.9130223,4.44908315 C12.8968194,4.3197985 12.8624645,4.22958458 12.8099578,4.1784414 C12.7607327,4.13049473 12.671987,4.09393275 12.5437207,4.06875554 L12.5175404,4.06387189 L9.007004,4.06387189 C8.88628178,4.08119649 8.79762419,4.11938638 8.74103107,4.1784414 C8.68821086,4.23355949 8.65472928,4.3158204 8.64058655,4.42522405 L8.63785196,4.44908315 L8.63785196,9.61718287 L7.14893875,9.61718287 L7.14893875,3.83007997 C7.18526207,3.49148137 7.30302641,3.23128663 7.50223176,3.04949573 C7.69456786,2.8739735 7.98763265,2.74890241 8.38142605,2.67428247 L8.42400362,2.66648053 L10.0074485,2.66647786 L10.0074485,1.4803263 L7.03345453,1.48036172 L7.03345453,0.0319761306 L14.5467303,0.0319761306 Z M5.23408675,0.397348074 C5.60667674,0.684753871 5.80465328,1.03684994 5.82801644,1.45363627 C5.90801209,2.12936591 6.00729337,2.55064541 6.12586022,2.71747478 C6.23986682,2.87788763 6.3961673,2.96117891 6.59476172,2.96734864 L6.61879607,2.96771882 L6.61879607,4.48180142 C5.92721085,4.54800705 5.41712142,4.39526008 5.08852768,4.02356035 C4.59563714,3.46601081 5.0904384,1.45363627 3.40231303,1.45363627 C1.71418767,1.45363627 2.38980192,3.15892559 1.62640897,4.02356035 C1.44193528,4.23249904 0.967650511,4.36678466 0.203554518,4.42641714 L0.16080664,4.42965321 L0.16080664,2.96771882 C0.569650774,2.96771882 0.834222483,2.62548661 0.954521688,1.94102219 C1.13497054,0.914325548 1.0206328,1.10940647 1.40950352,0.556137467 C1.66875066,0.187291464 2.3330205,0.00286846667 3.40231303,0.00286846667 C4.25090551,-0.0215509255 4.86149668,0.109942277 5.23408675,0.397348074 Z" id="形状结合" fill="url(#linearGradient-2)"></path>
                <path d="M10.5623274,17.2646405 L13.5914009,20.3033358 L13.5914009,17.5581542 L14.329429,17.4001483 L14.329429,22 L11.3295356,18.9570052 L11.3295356,21.6191253 L10.5623274,21.8028169 L10.5623274,17.2646405 Z M30.7684094,17.3242402 L31.527751,17.5100074 L29.3139766,21.8869903 L28.4576006,20.110304 L27.5727806,21.8869903 L25.3874501,17.5100074 L26.0943218,17.3242402 L27.5727806,20.2142699 L28.0318345,19.273017 L27.1802636,17.5100074 L27.8776411,17.3242402 L28.428498,18.3820979 L28.9896241,17.3242402 L29.6648743,17.5100074 L28.8717798,19.2219422 L29.3139766,20.2142699 L30.7684094,17.3242402 Z M48.8590302,17 L50,21.6510008 L49.2557328,21.7310971 L48.5969134,19.2058933 L47.2987281,21.8632691 L45.990893,19.2058933 L45.380552,21.7310971 L44.6687978,21.5766493 L45.7498567,17 L47.3343989,20.159192 L48.8590302,17 Z M6.82448341,17.4001483 C8.22708688,17.4001483 9.36412165,18.3857192 9.36412165,19.6014826 C9.36412165,20.8172459 8.22708688,21.8028169 6.82448341,21.8028169 C5.42187994,21.8028169 4.28484517,20.8172459 4.28484517,19.6014826 C4.28484517,18.3857192 5.42187994,17.4001483 6.82448341,17.4001483 Z M18.0941281,17.4001483 C18.7943398,17.4001483 19.4273151,17.6536353 19.8811582,18.0620798 L19.8401294,18.083321 L19.3599239,18.5656456 C19.0339964,18.2688618 18.5697072,18.083321 18.0544462,18.083321 C17.0682407,18.083321 16.2687631,18.7630251 16.2687631,19.6014826 C16.2687631,20.4399401 17.0682407,21.1196442 18.0544462,21.1196442 C18.4702779,21.1196442 18.8529117,20.9988016 19.1564138,20.7961688 L19.1563925,19.9402705 L17.53151,19.9402705 L17.8687669,19.2403447 L19.8811582,19.2403447 L19.8811582,21.1281875 L19.7236235,21.2606814 L19.7305562,21.2657162 C19.2920427,21.6003364 18.719939,21.8028169 18.0941281,21.8028169 C16.7134403,21.8028169 15.5941717,20.8172459 15.5941717,19.6014826 C15.5941717,18.3857192 16.7134403,17.4001483 18.0941281,17.4001483 Z M1.93580766,17.5061527 C2.18581131,17.5465605 2.58445753,17.7088041 3.13174648,17.9928836 L2.68982086,18.5270571 C1.84186612,18.0631771 1.29698991,18.008161 1.05519231,18.3620089 C0.701872677,18.8790586 1.33497639,19.0754759 2.53582124,19.4947369 C3.16418171,19.7141215 3.4776833,20.5368264 2.99933934,21.1024462 C2.549376,21.6345074 1.90594937,21.9167531 1.02000562,21.6847295 C0.750430242,21.6141291 0.410428316,21.3581926 -1.57651669e-14,20.9169199 L0.569070311,20.5126575 C1.0846114,20.9789165 1.5681305,21.143767 2.01962778,21.007209 C2.69687375,20.8023721 2.42239465,19.9991105 1.66107666,19.89192 C0.89975859,19.7847294 -0.252409883,19.1172165 0.28930162,18.1639734 C0.563999765,17.6805904 1.21444723,17.3895603 1.93580766,17.5061527 Z M23.4114956,17.3242402 C23.8017023,17.3242402 24.1706918,17.4055202 24.4984701,17.5501904 L24.5060791,17.6031135 L24.6367501,18.3785397 L24.6366837,18.380034 C24.3300418,18.1479452 23.9293251,18.0074129 23.4908593,18.0074129 C22.5265694,18.0074129 21.7448581,18.687117 21.7448581,19.5255745 C21.7448581,20.364032 22.5265694,21.0437361 23.4908593,21.0437361 C23.9028082,21.0437361 24.2814358,20.9196877 24.58003,20.7122074 L24.6367501,20.7455893 L24.5460436,21.4793824 C24.2065665,21.6375228 23.8206976,21.7269088 23.4114956,21.7269088 C22.0527235,21.7269088 20.9512211,20.7413378 20.9512211,19.5255745 C20.9512211,18.3098111 22.0527235,17.3242402 23.4114956,17.3242402 Z M32.3002295,20.582893 L32.8614155,21.1196442 L32.3002295,21.6563954 L31.7390434,21.1196442 L32.3002295,20.582893 Z M36.5065053,17.2483321 C36.8967119,17.2483321 37.2657015,17.3296122 37.5934798,17.4742823 L37.6010888,17.5272054 L37.7317598,18.3026316 L37.7316934,18.3041259 C37.4250515,18.0720371 37.0243348,17.9315049 36.585869,17.9315049 C35.6215791,17.9315049 34.8398677,18.611209 34.8398677,19.4496665 C34.8398677,20.2881239 35.6215791,20.967828 36.585869,20.967828 C36.9978178,20.967828 37.3764454,20.8437796 37.6750397,20.6362994 L37.7317598,20.6696812 L37.6410533,21.4034743 C37.3015761,21.5616147 36.9157072,21.6510008 36.5065053,21.6510008 C35.1477331,21.6510008 34.0462308,20.6654298 34.0462308,19.4496665 C34.0462308,18.2339031 35.1477331,17.2483321 36.5065053,17.2483321 Z M41.3476907,17.2483321 C42.7502942,17.2483321 43.8873289,18.2339031 43.8873289,19.4496665 C43.8873289,20.6654298 42.7502942,21.6510008 41.3476907,21.6510008 C39.9450872,21.6510008 38.8080525,20.6654298 38.8080525,19.4496665 C38.8080525,18.2339031 39.9450872,17.2483321 41.3476907,17.2483321 Z M6.82448341,18.083321 C5.86019349,18.083321 5.07848212,18.7630251 5.07848212,19.6014826 C5.07848212,20.4399401 5.86019349,21.1196442 6.82448341,21.1196442 C7.78877326,21.1196442 8.5704847,20.4399401 8.5704847,19.6014826 C8.5704847,18.7630251 7.78877326,18.083321 6.82448341,18.083321 Z M41.3476907,17.9315049 C40.3834008,17.9315049 39.6016894,18.611209 39.6016894,19.4496665 C39.6016894,20.2881239 40.3834008,20.967828 41.3476907,20.967828 C42.3119805,20.967828 43.093692,20.2881239 43.093692,19.4496665 C43.093692,18.611209 42.3119805,17.9315049 41.3476907,17.9315049 Z" id="形状结合" fill="url(#linearGradient-3)"></path>
            </g>
        </g>
    </g>
</svg>